<?xml version="1.0" encoding="UTF-8"?>
<!DOCTYPE svg PUBLIC "-//W3C//DTD SVG 1.1//EN" "http://www.w3.org/Graphics/SVG/1.1/DTD/svg11.dtd">
<svg version="1.1" xmlns="http://www.w3.org/2000/svg" xmlns:xlink="http://www.w3.org/1999/xlink" x="0" y="0" width="595.276" height="841.89" viewBox="0, 0, 595.276, 841.89">
  <defs>
    <clipPath id="Clip_1">
      <path d="M-2.941,-3.472 L34.481,-3.472 L34.481,24.408 L-2.941,24.408 z M25.596,6.4 L26.004,6.448 Q26.148,6.496 26.244,6.568 Q26.34,6.616 26.412,6.712 Q26.484,6.808 26.484,6.928 L26.484,7.336 Q26.46,7.576 26.256,7.78 Q26.052,7.984 25.8,8.128 Q25.548,8.272 25.308,8.344 Q25.068,8.416 24.948,8.392 Q24.804,8.392 24.756,8.308 Q24.708,8.224 24.732,8.092 Q24.756,7.96 24.804,7.804 Q24.852,7.648 24.876,7.528 Q24.996,7.24 25.116,6.976 Q25.236,6.76 25.356,6.58 Q25.476,6.4 25.596,6.4 z M26.676,4.6 Q26.22,4.552 25.572,4.828 Q24.924,5.104 24.312,5.56 Q23.7,6.016 23.244,6.58 Q22.788,7.144 22.74,7.672 L22.404,8.464 Q22.332,8.632 22.26,8.8 Q22.14,9.112 22.14,9.4 Q22.044,9.544 22.044,9.652 Q22.044,9.76 22.068,9.832 Q22.092,9.904 22.092,9.976 Q22.092,10.048 21.996,10.12 Q21.972,10.264 21.912,10.708 Q21.852,11.152 21.78,11.644 Q21.708,12.136 21.66,12.556 Q21.612,12.976 21.612,13.072 L21.612,13.456 L21.54,13.936 Q21.588,14.008 21.636,14.104 Q21.732,14.296 21.732,14.464 L21.732,14.872 Q21.708,15.04 21.804,15.28 Q21.9,15.52 22.08,15.748 Q22.26,15.976 22.488,16.144 Q22.716,16.312 22.932,16.336 Q23.292,16.336 23.64,16.312 Q23.988,16.288 24.396,15.928 Q24.54,15.784 24.996,15.472 Q25.452,15.16 25.932,14.74 Q26.412,14.32 26.82,13.828 Q27.228,13.336 27.276,12.808 Q27.276,12.496 27.156,12.448 Q27.036,12.4 26.868,12.4 Q26.772,12.352 26.568,12.46 Q26.364,12.568 26.004,12.736 Q25.908,12.808 25.704,12.952 Q25.5,13.096 25.296,13.228 Q25.092,13.36 24.924,13.456 Q24.756,13.552 24.732,13.528 Q24.396,13.528 24.18,13.132 Q23.964,12.736 24.012,12.328 L24.012,11.32 Q24.036,10.72 24.336,10.336 Q24.636,9.952 25.08,9.664 Q25.524,9.376 26.04,9.136 Q26.556,8.896 27.012,8.584 Q27.516,8.296 27.996,7.9 Q28.476,7.504 28.476,6.856 Q28.5,6.4 28.404,5.992 Q28.308,5.584 28.092,5.272 Q27.876,4.96 27.528,4.78 Q27.18,4.6 26.676,4.6 z M7.716,7.336 Q7.956,7.336 8.148,7.576 Q8.34,7.816 8.472,8.14 Q8.604,8.464 8.664,8.764 Q8.724,9.064 8.724,9.184 L8.724,9.856 Q8.724,10.024 8.568,10.216 Q8.412,10.408 8.46,10.6 Q8.292,11.008 8.112,11.464 Q7.932,11.92 7.788,12.256 Q7.668,12.472 7.344,12.688 Q7.02,12.904 6.684,13.096 Q6.276,13.312 5.796,13.528 Q5.532,13.528 5.388,13.36 Q5.244,13.192 5.136,12.976 Q5.028,12.76 4.956,12.544 Q4.884,12.328 4.788,12.256 L4.788,11.8 Q4.788,11.728 4.848,11.416 Q4.908,11.104 5.004,10.768 L5.244,9.856 Q5.34,9.664 5.604,9.244 Q5.868,8.824 6.204,8.404 Q6.54,7.984 6.936,7.66 Q7.332,7.336 7.716,7.336 z M7.596,4.6 Q7.308,4.6 7.128,4.708 Q6.948,4.816 6.78,4.984 Q6.612,5.152 6.432,5.356 Q6.252,5.56 5.988,5.728 Q5.724,5.896 5.232,6.628 Q4.74,7.36 4.248,8.308 Q3.756,9.256 3.396,10.24 Q3.036,11.224 3.06,11.92 Q3.06,12.472 3.156,12.592 Q3.252,12.712 3.252,12.856 L3.252,14.464 Q3.252,14.824 3.396,15.172 Q3.54,15.52 3.768,15.796 Q3.996,16.072 4.308,16.24 Q4.62,16.408 4.98,16.408 Q5.22,16.408 5.424,16.372 Q5.628,16.336 5.82,16.24 Q6.012,16.144 6.252,16 Q6.492,15.856 6.852,15.664 Q7.092,15.568 7.32,15.364 Q7.548,15.16 7.752,14.908 Q7.956,14.656 8.136,14.416 Q8.316,14.176 8.46,14.008 Q8.652,13.768 8.76,13.516 Q8.868,13.264 8.952,13.024 Q9.036,12.784 9.12,12.556 Q9.204,12.328 9.396,12.136 Q9.948,11.488 10.236,10.672 Q10.524,9.856 10.524,9.184 L10.716,7.048 Q10.716,6.904 10.644,6.712 Q10.572,6.52 10.464,6.34 Q10.356,6.16 10.224,5.992 Q10.092,5.824 9.996,5.728 Q9.828,5.368 9.72,5.08 Q9.612,4.792 9.252,4.792 Q8.916,4.648 8.424,4.624 Q7.932,4.6 7.596,4.6 z M19.26,4.528 Q19.116,4.528 18.804,4.804 Q18.492,5.08 18.108,5.488 Q17.724,5.896 17.316,6.364 Q16.908,6.832 16.536,7.24 Q16.164,7.648 15.888,7.924 Q15.612,8.2 15.516,8.2 L15.252,7.72 L15.18,7.336 Q15.18,7.24 15.24,6.976 Q15.3,6.712 15.36,6.424 Q15.42,6.136 15.444,5.848 Q15.468,5.56 15.396,5.392 Q15.276,5.2 15.132,5.032 Q14.988,4.864 14.724,4.864 Q14.46,4.864 14.172,5.008 Q13.884,5.152 13.716,5.248 Q12.924,5.752 12.36,6.388 Q11.796,7.024 11.196,7.864 Q11.196,8.008 11.112,8.284 Q11.028,8.56 11.196,8.656 L11.388,8.656 Q11.484,8.656 11.64,8.584 Q11.796,8.512 11.976,8.428 Q12.156,8.344 12.336,8.272 Q12.516,8.2 12.66,8.2 Q12.852,8.2 12.888,8.356 Q12.924,8.512 12.924,8.656 L12.996,9.592 L12.996,9.928 Q12.996,10.024 12.9,10.216 Q12.804,10.408 12.696,10.636 Q12.588,10.864 12.492,11.092 Q12.396,11.32 12.396,11.464 L12.516,11.872 L12.516,12.736 Q12.516,12.832 12.348,13.12 Q12.18,13.408 12,13.792 Q11.82,14.176 11.676,14.62 Q11.532,15.064 11.58,15.472 Q11.604,15.736 11.808,15.88 Q12.012,16.024 12.264,16.096 Q12.516,16.168 12.78,16.18 Q13.044,16.192 13.188,16.192 Q13.332,16.192 13.488,16.156 Q13.644,16.12 13.524,15.928 Q13.716,15.28 13.956,14.524 Q14.196,13.768 14.46,13 Q14.556,12.736 14.616,12.448 Q14.676,12.16 14.724,11.872 Q14.676,11.68 14.712,11.548 Q14.748,11.416 14.868,11.272 Q15.06,10.864 15.216,10.408 Q15.372,9.952 15.588,9.556 Q15.804,9.16 16.14,8.908 Q16.476,8.656 17.052,8.656 Q17.436,8.656 17.532,9.328 L17.532,9.592 Q17.484,10.048 17.364,10.552 Q17.244,11.056 17.052,11.608 Q16.86,12.256 16.632,13 Q16.404,13.744 16.26,14.392 L16.332,15.256 Q16.332,15.4 16.416,15.604 Q16.5,15.808 16.644,15.988 Q16.788,16.168 16.968,16.288 Q17.148,16.408 17.316,16.408 Q17.796,16.408 18.108,16.216 Q18.42,16.024 18.684,15.7 Q18.948,15.376 19.212,14.992 Q19.476,14.608 19.86,14.2 Q20.004,14.2 20.136,14.032 Q20.268,13.864 20.268,13.672 Q20.364,13.672 20.58,13.48 Q20.796,13.288 21.012,13.048 Q21.228,12.808 21.384,12.592 Q21.54,12.376 21.54,12.328 Q21.54,12.184 21.372,12.028 Q21.204,11.872 21.06,11.872 Q20.964,11.872 20.616,12.1 Q20.268,12.328 19.86,12.592 Q19.692,12.712 19.548,12.808 Q19.404,12.904 19.284,13 Q19.14,13.096 18.996,13.192 Q18.804,13.192 18.744,13.12 Q18.684,13.048 18.684,12.94 Q18.684,12.832 18.708,12.7 Q18.732,12.568 18.732,12.472 Q18.732,12.448 18.84,12.04 Q18.948,11.632 19.104,11.02 Q19.26,10.408 19.44,9.676 Q19.62,8.944 19.776,8.236 Q19.932,7.528 20.004,6.928 Q20.076,6.328 20.052,5.992 Q19.956,5.584 19.836,5.272 Q19.716,5.008 19.584,4.768 Q19.452,4.528 19.26,4.528 z"/>
    </clipPath>
    <filter id="Shadow_2">
      <feGaussianBlur in="SourceAlpha" stdDeviation="2.5"/>
      <feOffset dx="0" dy="2" result="offsetblur"/>
      <feFlood flood-color="#000000"/>
      <feComposite in2="offsetblur" operator="in"/>
    </filter>
    <clipPath id="Clip_3">
      <path d="M2.52,-5.536 L27.6,-5.536 L27.6,24.408 L2.52,24.408 z M12.672,2.464 L12.576,2.56 Q12.432,2.656 12.336,2.656 L12.072,2.656 Q11.808,2.704 11.568,2.752 Q11.376,2.8 11.16,2.824 Q10.944,2.848 10.8,2.848 Q10.656,2.8 10.536,2.752 Q10.416,2.704 10.284,2.68 Q10.152,2.656 10.056,2.656 L8.736,2.656 Q8.64,2.656 8.604,2.728 Q8.568,2.8 8.544,2.872 Q8.52,2.968 8.52,3.064 Q8.52,3.52 8.616,3.736 Q8.712,3.952 8.856,4.048 Q9,4.12 9.168,4.144 Q9.336,4.168 9.492,4.18 Q9.648,4.192 9.792,4.228 Q9.936,4.264 10.056,4.384 Q10.176,4.552 10.248,4.828 Q10.32,5.104 10.32,5.584 Q10.32,5.68 10.272,5.86 Q10.224,6.04 10.176,6.232 Q10.104,6.472 10.056,6.736 L10.32,7.384 L10.32,13.12 Q10.32,13.288 10.224,13.468 Q10.128,13.648 10.32,14.008 Q10.392,14.368 10.164,14.608 Q9.936,14.848 9.612,15.052 Q9.288,15.256 9.012,15.46 Q8.736,15.664 8.736,15.928 Q8.736,16.096 8.988,16.252 Q9.24,16.408 9.384,16.408 Q9.456,16.408 9.696,16.336 Q9.936,16.264 10.224,16.168 Q10.512,16.072 10.776,16 Q11.04,15.928 11.184,15.928 L12.072,16.192 L13.392,16.192 Q13.8,16.192 14.196,16.012 Q14.592,15.832 14.592,15.544 Q14.592,14.848 13.92,14.536 L13.392,14.392 Q13.32,14.392 13.2,14.32 Q13.08,14.248 12.972,14.14 Q12.864,14.032 12.792,13.9 Q12.72,13.768 12.72,13.672 Q12.72,13.168 12.852,13.06 Q12.984,12.952 12.984,12.808 L12.984,12.136 Q12.984,11.968 13.092,11.536 Q13.2,11.104 13.2,10.6 L12.984,9.4 Q12.984,9.328 12.948,9.136 Q12.912,8.944 12.852,8.728 Q12.792,8.512 12.756,8.32 Q12.72,8.128 12.72,8.056 L12.984,6.928 Q12.984,6.856 12.936,6.712 Q12.888,6.568 12.84,6.424 Q12.768,6.256 12.72,6.064 L12.72,4.384 Q12.72,4.24 13.008,4.144 Q13.296,4.048 13.656,3.976 Q14.016,3.904 14.304,3.832 Q14.592,3.76 14.592,3.664 Q14.592,3.496 14.508,3.316 Q14.424,3.136 14.316,2.992 Q14.208,2.848 14.088,2.752 Q13.968,2.656 13.92,2.656 Q13.824,2.656 13.644,2.632 Q13.464,2.608 13.272,2.572 Q13.08,2.536 12.912,2.5 Q12.744,2.464 12.672,2.464 z M19.68,2.464 L19.584,2.56 Q19.44,2.656 19.344,2.656 L19.08,2.656 Q18.816,2.704 18.576,2.752 Q18.384,2.8 18.168,2.824 Q17.952,2.848 17.808,2.848 Q17.664,2.8 17.544,2.752 Q17.424,2.704 17.292,2.68 Q17.16,2.656 17.064,2.656 L15.744,2.656 Q15.648,2.656 15.612,2.728 Q15.576,2.8 15.552,2.872 Q15.528,2.968 15.528,3.064 Q15.528,3.52 15.624,3.736 Q15.72,3.952 15.864,4.048 Q16.008,4.12 16.176,4.144 Q16.344,4.168 16.5,4.18 Q16.656,4.192 16.8,4.228 Q16.944,4.264 17.064,4.384 Q17.184,4.552 17.256,4.828 Q17.328,5.104 17.328,5.584 Q17.328,5.68 17.28,5.86 Q17.232,6.04 17.184,6.232 Q17.112,6.472 17.064,6.736 L17.328,7.384 L17.328,13.12 Q17.328,13.288 17.232,13.468 Q17.136,13.648 17.328,14.008 Q17.4,14.368 17.172,14.608 Q16.944,14.848 16.62,15.052 Q16.296,15.256 16.02,15.46 Q15.744,15.664 15.744,15.928 Q15.744,16.096 15.996,16.252 Q16.248,16.408 16.392,16.408 Q16.464,16.408 16.704,16.336 Q16.944,16.264 17.232,16.168 Q17.52,16.072 17.784,16 Q18.048,15.928 18.192,15.928 L19.08,16.192 L20.4,16.192 Q20.808,16.192 21.204,16.012 Q21.6,15.832 21.6,15.544 Q21.6,14.848 20.928,14.536 L20.4,14.392 Q20.328,14.392 20.208,14.32 Q20.088,14.248 19.98,14.14 Q19.872,14.032 19.8,13.9 Q19.728,13.768 19.728,13.672 Q19.728,13.168 19.86,13.06 Q19.992,12.952 19.992,12.808 L19.992,12.136 Q19.992,11.968 20.1,11.536 Q20.208,11.104 20.208,10.6 L19.992,9.4 Q19.992,9.328 19.956,9.136 Q19.92,8.944 19.86,8.728 Q19.8,8.512 19.764,8.32 Q19.728,8.128 19.728,8.056 L19.992,6.928 Q19.992,6.856 19.944,6.712 Q19.896,6.568 19.848,6.424 Q19.776,6.256 19.728,6.064 L19.728,4.384 Q19.728,4.24 20.016,4.144 Q20.304,4.048 20.664,3.976 Q21.024,3.904 21.312,3.832 Q21.6,3.76 21.6,3.664 Q21.6,3.496 21.516,3.316 Q21.432,3.136 21.324,2.992 Q21.216,2.848 21.096,2.752 Q20.976,2.656 20.928,2.656 Q20.832,2.656 20.652,2.632 Q20.472,2.608 20.28,2.572 Q20.088,2.536 19.92,2.5 Q19.752,2.464 19.68,2.464 z"/>
    </clipPath>
    <filter id="Shadow_4">
      <feGaussianBlur in="SourceAlpha" stdDeviation="2.5"/>
      <feOffset dx="0" dy="2" result="offsetblur"/>
      <feFlood flood-color="#000000"/>
      <feComposite in2="offsetblur" operator="in"/>
    </filter>
    <clipPath id="Clip_5">
      <path d="M3.723,-5.68 L26.047,-5.68 L26.047,24.504 L3.723,24.504 z M15.084,2.32 Q14.484,2.344 13.8,2.536 Q13.116,2.728 12.516,3.004 Q11.916,3.28 11.46,3.616 Q11.004,3.952 10.86,4.264 Q10.812,4.384 10.824,4.456 Q10.836,4.528 10.872,4.6 Q10.908,4.672 10.932,4.744 Q10.956,4.816 10.932,4.936 Q10.932,5.584 11.256,5.764 Q11.58,5.944 11.94,5.8 Q12.156,5.68 12.396,5.452 Q12.636,5.224 12.828,4.996 Q13.02,4.768 13.164,4.588 Q13.308,4.408 13.332,4.384 Q13.596,4.288 13.8,4.24 Q14.004,4.192 14.268,4.192 Q14.532,4.24 14.676,4.252 Q14.82,4.264 15.084,4.264 Q15.372,4.192 15.6,4.336 Q15.828,4.48 15.996,4.744 Q16.164,5.008 16.26,5.296 Q16.356,5.584 16.404,5.8 Q16.404,6.136 16.368,6.4 Q16.332,6.664 16.14,6.856 Q15.732,7.504 15.204,7.768 Q14.676,8.032 14.136,8.116 Q13.596,8.2 13.092,8.2 Q12.588,8.2 12.276,8.32 Q12.156,8.344 12.12,8.464 Q12.084,8.584 12.108,8.74 Q12.132,8.896 12.204,9.076 Q12.276,9.256 12.348,9.4 Q12.468,9.592 12.588,9.64 Q12.708,9.688 12.84,9.664 Q12.972,9.64 13.128,9.604 Q13.284,9.568 13.476,9.592 Q13.98,9.712 14.328,9.832 Q14.676,9.952 14.868,10.072 Q15.348,10.216 15.732,10.552 Q16.116,10.888 16.38,11.332 Q16.644,11.776 16.788,12.28 Q16.932,12.784 16.932,13.264 Q16.932,13.816 16.62,14.224 Q16.308,14.632 15.996,14.944 Q15.396,15.448 14.676,15.388 Q13.956,15.328 13.272,15.016 Q12.588,14.704 12.06,14.284 Q11.532,13.864 11.34,13.6 Q11.196,13.432 11.04,13.432 Q10.884,13.432 10.74,13.552 Q10.596,13.672 10.476,13.864 Q10.356,14.056 10.26,14.272 Q10.116,14.464 9.9,14.536 Q9.684,14.608 9.732,14.8 Q9.732,14.968 9.852,15.16 Q9.972,15.352 10.152,15.52 Q10.332,15.688 10.548,15.82 Q10.764,15.952 10.932,16 Q11.292,16.12 11.712,16.264 Q12.132,16.408 12.732,16.408 Q13.044,16.408 13.512,16.456 Q13.98,16.504 14.52,16.504 Q15.06,16.504 15.612,16.432 Q16.164,16.36 16.668,16.144 Q17.292,15.832 18.036,15.52 Q18.78,15.208 19.284,14.608 Q19.692,14.056 19.908,13.252 Q20.124,12.448 20.004,11.8 Q20.004,11.344 19.74,10.864 Q19.476,10.384 19.02,9.928 Q18.708,9.616 18.384,9.448 Q18.06,9.28 17.712,9.184 Q17.364,9.088 17.004,9.04 Q16.644,8.992 16.284,8.92 Q16.236,8.872 16.152,8.86 Q16.068,8.848 16.068,8.8 Q15.972,8.632 16.164,8.668 Q16.356,8.704 16.596,8.584 Q16.956,8.536 17.316,8.404 Q17.676,8.272 17.868,8.128 Q18.228,7.744 18.564,7.276 Q18.9,6.808 19.104,6.28 Q19.308,5.752 19.332,5.188 Q19.356,4.624 19.068,4.048 Q18.78,3.496 18.144,2.992 Q17.508,2.488 16.596,2.392 Q16.452,2.392 16.26,2.428 Q16.068,2.464 15.876,2.464 Q15.684,2.464 15.48,2.392 Q15.276,2.32 15.084,2.32 z"/>
    </clipPath>
    <filter id="Shadow_6">
      <feGaussianBlur in="SourceAlpha" stdDeviation="2.5"/>
      <feOffset dx="0" dy="2" result="offsetblur"/>
      <feFlood flood-color="#000000"/>
      <feComposite in2="offsetblur" operator="in"/>
    </filter>
  </defs>
  <g id="one">
    <g>
      <path d="M19.26,4.528 Q19.452,4.528 19.584,4.768 Q19.716,5.008 19.836,5.272 Q19.956,5.584 20.052,5.992 Q20.076,6.328 20.004,6.928 Q19.932,7.528 19.776,8.236 Q19.62,8.944 19.44,9.676 Q19.26,10.408 19.104,11.02 Q18.948,11.632 18.84,12.04 Q18.732,12.448 18.732,12.472 Q18.732,12.568 18.708,12.7 Q18.684,12.832 18.684,12.94 Q18.684,13.048 18.744,13.12 Q18.804,13.192 18.996,13.192 Q19.14,13.096 19.284,13 Q19.404,12.904 19.548,12.808 Q19.692,12.712 19.86,12.592 Q20.268,12.328 20.616,12.1 Q20.964,11.872 21.06,11.872 Q21.204,11.872 21.372,12.028 Q21.54,12.184 21.54,12.328 Q21.54,12.376 21.384,12.592 Q21.228,12.808 21.012,13.048 Q20.796,13.288 20.58,13.48 Q20.364,13.672 20.268,13.672 Q20.268,13.864 20.136,14.032 Q20.004,14.2 19.86,14.2 Q19.476,14.608 19.212,14.992 Q18.948,15.376 18.684,15.7 Q18.42,16.024 18.108,16.216 Q17.796,16.408 17.316,16.408 Q17.148,16.408 16.968,16.288 Q16.788,16.168 16.644,15.988 Q16.5,15.808 16.416,15.604 Q16.332,15.4 16.332,15.256 L16.26,14.392 Q16.404,13.744 16.632,13 Q16.86,12.256 17.052,11.608 Q17.244,11.056 17.364,10.552 Q17.484,10.048 17.532,9.592 L17.532,9.328 Q17.436,8.656 17.052,8.656 Q16.476,8.656 16.14,8.908 Q15.804,9.16 15.588,9.556 Q15.372,9.952 15.216,10.408 Q15.06,10.864 14.868,11.272 Q14.748,11.416 14.712,11.548 Q14.676,11.68 14.724,11.872 Q14.676,12.16 14.616,12.448 Q14.556,12.736 14.46,13 Q14.196,13.768 13.956,14.524 Q13.716,15.28 13.524,15.928 Q13.644,16.12 13.488,16.156 Q13.332,16.192 13.188,16.192 Q13.044,16.192 12.78,16.18 Q12.516,16.168 12.264,16.096 Q12.012,16.024 11.808,15.88 Q11.604,15.736 11.58,15.472 Q11.532,15.064 11.676,14.62 Q11.82,14.176 12,13.792 Q12.18,13.408 12.348,13.12 Q12.516,12.832 12.516,12.736 L12.516,11.872 L12.396,11.464 Q12.396,11.32 12.492,11.092 Q12.588,10.864 12.696,10.636 Q12.804,10.408 12.9,10.216 Q12.996,10.024 12.996,9.928 L12.996,9.592 L12.924,8.656 Q12.924,8.512 12.888,8.356 Q12.852,8.2 12.66,8.2 Q12.516,8.2 12.336,8.272 Q12.156,8.344 11.976,8.428 Q11.796,8.512 11.64,8.584 Q11.484,8.656 11.388,8.656 L11.196,8.656 Q11.028,8.56 11.112,8.284 Q11.196,8.008 11.196,7.864 Q11.796,7.024 12.36,6.388 Q12.924,5.752 13.716,5.248 Q13.884,5.152 14.172,5.008 Q14.46,4.864 14.724,4.864 Q14.988,4.864 15.132,5.032 Q15.276,5.2 15.396,5.392 Q15.468,5.56 15.444,5.848 Q15.42,6.136 15.36,6.424 Q15.3,6.712 15.24,6.976 Q15.18,7.24 15.18,7.336 L15.252,7.72 L15.516,8.2 Q15.612,8.2 15.888,7.924 Q16.164,7.648 16.536,7.24 Q16.908,6.832 17.316,6.364 Q17.724,5.896 18.108,5.488 Q18.492,5.08 18.804,4.804 Q19.116,4.528 19.26,4.528 z M7.596,4.6 Q7.932,4.6 8.424,4.624 Q8.916,4.648 9.252,4.792 Q9.612,4.792 9.72,5.08 Q9.828,5.368 9.996,5.728 Q10.092,5.824 10.224,5.992 Q10.356,6.16 10.464,6.34 Q10.572,6.52 10.644,6.712 Q10.716,6.904 10.716,7.048 L10.524,9.184 Q10.524,9.856 10.236,10.672 Q9.948,11.488 9.396,12.136 Q9.204,12.328 9.12,12.556 Q9.036,12.784 8.952,13.024 Q8.868,13.264 8.76,13.516 Q8.652,13.768 8.46,14.008 Q8.316,14.176 8.136,14.416 Q7.956,14.656 7.752,14.908 Q7.548,15.16 7.32,15.364 Q7.092,15.568 6.852,15.664 Q6.492,15.856 6.252,16 Q6.012,16.144 5.82,16.24 Q5.628,16.336 5.424,16.372 Q5.22,16.408 4.98,16.408 Q4.62,16.408 4.308,16.24 Q3.996,16.072 3.768,15.796 Q3.54,15.52 3.396,15.172 Q3.252,14.824 3.252,14.464 L3.252,12.856 Q3.252,12.712 3.156,12.592 Q3.06,12.472 3.06,11.92 Q3.036,11.224 3.396,10.24 Q3.756,9.256 4.248,8.308 Q4.74,7.36 5.232,6.628 Q5.724,5.896 5.988,5.728 Q6.252,5.56 6.432,5.356 Q6.612,5.152 6.78,4.984 Q6.948,4.816 7.128,4.708 Q7.308,4.6 7.596,4.6 z M7.716,7.336 Q7.332,7.336 6.936,7.66 Q6.54,7.984 6.204,8.404 Q5.868,8.824 5.604,9.244 Q5.34,9.664 5.244,9.856 L5.004,10.768 Q4.908,11.104 4.848,11.416 Q4.788,11.728 4.788,11.8 L4.788,12.256 Q4.884,12.328 4.956,12.544 Q5.028,12.76 5.136,12.976 Q5.244,13.192 5.388,13.36 Q5.532,13.528 5.796,13.528 Q6.276,13.312 6.684,13.096 Q7.02,12.904 7.344,12.688 Q7.668,12.472 7.788,12.256 Q7.932,11.92 8.112,11.464 Q8.292,11.008 8.46,10.6 Q8.412,10.408 8.568,10.216 Q8.724,10.024 8.724,9.856 L8.724,9.184 Q8.724,9.064 8.664,8.764 Q8.604,8.464 8.472,8.14 Q8.34,7.816 8.148,7.576 Q7.956,7.336 7.716,7.336 z M26.676,4.6 Q27.18,4.6 27.528,4.78 Q27.876,4.96 28.092,5.272 Q28.308,5.584 28.404,5.992 Q28.5,6.4 28.476,6.856 Q28.476,7.504 27.996,7.9 Q27.516,8.296 27.012,8.584 Q26.556,8.896 26.04,9.136 Q25.524,9.376 25.08,9.664 Q24.636,9.952 24.336,10.336 Q24.036,10.72 24.012,11.32 L24.012,12.328 Q23.964,12.736 24.18,13.132 Q24.396,13.528 24.732,13.528 Q24.756,13.552 24.924,13.456 Q25.092,13.36 25.296,13.228 Q25.5,13.096 25.704,12.952 Q25.908,12.808 26.004,12.736 Q26.364,12.568 26.568,12.46 Q26.772,12.352 26.868,12.4 Q27.036,12.4 27.156,12.448 Q27.276,12.496 27.276,12.808 Q27.228,13.336 26.82,13.828 Q26.412,14.32 25.932,14.74 Q25.452,15.16 24.996,15.472 Q24.54,15.784 24.396,15.928 Q23.988,16.288 23.64,16.312 Q23.292,16.336 22.932,16.336 Q22.716,16.312 22.488,16.144 Q22.26,15.976 22.08,15.748 Q21.9,15.52 21.804,15.28 Q21.708,15.04 21.732,14.872 L21.732,14.464 Q21.732,14.296 21.636,14.104 Q21.588,14.008 21.54,13.936 L21.612,13.456 L21.612,13.072 Q21.612,12.976 21.66,12.556 Q21.708,12.136 21.78,11.644 Q21.852,11.152 21.912,10.708 Q21.972,10.264 21.996,10.12 Q22.092,10.048 22.092,9.976 Q22.092,9.904 22.068,9.832 Q22.044,9.76 22.044,9.652 Q22.044,9.544 22.14,9.4 Q22.14,9.112 22.26,8.8 Q22.332,8.632 22.404,8.464 L22.74,7.672 Q22.788,7.144 23.244,6.58 Q23.7,6.016 24.312,5.56 Q24.924,5.104 25.572,4.828 Q26.22,4.552 26.676,4.6 z M25.596,6.4 Q25.476,6.4 25.356,6.58 Q25.236,6.76 25.116,6.976 Q24.996,7.24 24.876,7.528 Q24.852,7.648 24.804,7.804 Q24.756,7.96 24.732,8.092 Q24.708,8.224 24.756,8.308 Q24.804,8.392 24.948,8.392 Q25.068,8.416 25.308,8.344 Q25.548,8.272 25.8,8.128 Q26.052,7.984 26.256,7.78 Q26.46,7.576 26.484,7.336 L26.484,6.928 Q26.484,6.808 26.412,6.712 Q26.34,6.616 26.244,6.568 Q26.148,6.496 26.004,6.448 L25.596,6.4 z" clip-path="url(#Clip_1)" filter="url(#Shadow_2)" fill="rgba(0,0,0,0.75)"/>
      <text transform="matrix(1, 0, 0, 1, 15, 14.5)">
        <tspan x="-12.684" y="1.5" font-family="Trattatello" font-size="24" fill="#B3A7A7">one</tspan>
      </text>
      <path d="M7.596,4.6 Q7.932,4.6 8.424,4.624 Q8.916,4.648 9.252,4.792 Q9.612,4.792 9.72,5.08 Q9.828,5.368 9.996,5.728 Q10.092,5.824 10.224,5.992 Q10.356,6.16 10.464,6.34 Q10.572,6.52 10.644,6.712 Q10.716,6.904 10.716,7.048 L10.524,9.184 Q10.524,9.856 10.236,10.672 Q9.948,11.488 9.396,12.136 Q9.204,12.328 9.12,12.556 Q9.036,12.784 8.952,13.024 Q8.868,13.264 8.76,13.516 Q8.652,13.768 8.46,14.008 Q8.316,14.176 8.136,14.416 Q7.956,14.656 7.752,14.908 Q7.548,15.16 7.32,15.364 Q7.092,15.568 6.852,15.664 Q6.492,15.856 6.252,16 Q6.012,16.144 5.82,16.24 Q5.628,16.336 5.424,16.372 Q5.22,16.408 4.98,16.408 Q4.62,16.408 4.308,16.24 Q3.996,16.072 3.768,15.796 Q3.54,15.52 3.396,15.172 Q3.252,14.824 3.252,14.464 L3.252,12.856 Q3.252,12.712 3.156,12.592 Q3.06,12.472 3.06,11.92 Q3.036,11.224 3.396,10.24 Q3.756,9.256 4.248,8.308 Q4.74,7.36 5.232,6.628 Q5.724,5.896 5.988,5.728 Q6.252,5.56 6.432,5.356 Q6.612,5.152 6.78,4.984 Q6.948,4.816 7.128,4.708 Q7.308,4.6 7.596,4.6 z M7.716,7.336 Q7.332,7.336 6.936,7.66 Q6.54,7.984 6.204,8.404 Q5.868,8.824 5.604,9.244 Q5.34,9.664 5.244,9.856 L5.004,10.768 Q4.908,11.104 4.848,11.416 Q4.788,11.728 4.788,11.8 L4.788,12.256 Q4.884,12.328 4.956,12.544 Q5.028,12.76 5.136,12.976 Q5.244,13.192 5.388,13.36 Q5.532,13.528 5.796,13.528 Q6.276,13.312 6.684,13.096 Q7.02,12.904 7.344,12.688 Q7.668,12.472 7.788,12.256 Q7.932,11.92 8.112,11.464 Q8.292,11.008 8.46,10.6 Q8.412,10.408 8.568,10.216 Q8.724,10.024 8.724,9.856 L8.724,9.184 Q8.724,9.064 8.664,8.764 Q8.604,8.464 8.472,8.14 Q8.34,7.816 8.148,7.576 Q7.956,7.336 7.716,7.336 z M14.724,4.864 Q14.988,4.864 15.132,5.032 Q15.276,5.2 15.396,5.392 Q15.468,5.56 15.444,5.848 Q15.42,6.136 15.36,6.424 Q15.3,6.712 15.24,6.976 Q15.18,7.24 15.18,7.336 L15.252,7.72 L15.516,8.2 Q15.612,8.2 15.888,7.924 Q16.164,7.648 16.536,7.24 Q16.908,6.832 17.316,6.364 Q17.724,5.896 18.108,5.488 Q18.492,5.08 18.804,4.804 Q19.116,4.528 19.26,4.528 Q19.452,4.528 19.584,4.768 Q19.716,5.008 19.836,5.272 Q19.956,5.584 20.052,5.992 Q20.076,6.328 20.004,6.928 Q19.932,7.528 19.776,8.236 Q19.62,8.944 19.44,9.676 Q19.26,10.408 19.104,11.02 Q18.948,11.632 18.84,12.04 Q18.732,12.448 18.732,12.472 Q18.732,12.568 18.708,12.7 Q18.684,12.832 18.684,12.94 Q18.684,13.048 18.744,13.12 Q18.804,13.192 18.996,13.192 Q19.14,13.096 19.284,13 Q19.404,12.904 19.548,12.808 Q19.692,12.712 19.86,12.592 Q20.268,12.328 20.616,12.1 Q20.964,11.872 21.06,11.872 Q21.204,11.872 21.372,12.028 Q21.54,12.184 21.54,12.328 Q21.54,12.376 21.384,12.592 Q21.228,12.808 21.012,13.048 Q20.796,13.288 20.58,13.48 Q20.364,13.672 20.268,13.672 Q20.268,13.864 20.136,14.032 Q20.004,14.2 19.86,14.2 Q19.476,14.608 19.212,14.992 Q18.948,15.376 18.684,15.7 Q18.42,16.024 18.108,16.216 Q17.796,16.408 17.316,16.408 Q17.148,16.408 16.968,16.288 Q16.788,16.168 16.644,15.988 Q16.5,15.808 16.416,15.604 Q16.332,15.4 16.332,15.256 L16.26,14.392 Q16.404,13.744 16.632,13 Q16.86,12.256 17.052,11.608 Q17.244,11.056 17.364,10.552 Q17.484,10.048 17.532,9.592 L17.532,9.328 Q17.436,8.656 17.052,8.656 Q16.476,8.656 16.14,8.908 Q15.804,9.16 15.588,9.556 Q15.372,9.952 15.216,10.408 Q15.06,10.864 14.868,11.272 Q14.748,11.416 14.712,11.548 Q14.676,11.68 14.724,11.872 Q14.676,12.16 14.616,12.448 Q14.556,12.736 14.46,13 Q14.196,13.768 13.956,14.524 Q13.716,15.28 13.524,15.928 Q13.644,16.12 13.488,16.156 Q13.332,16.192 13.188,16.192 Q13.044,16.192 12.78,16.18 Q12.516,16.168 12.264,16.096 Q12.012,16.024 11.808,15.88 Q11.604,15.736 11.58,15.472 Q11.532,15.064 11.676,14.62 Q11.82,14.176 12,13.792 Q12.18,13.408 12.348,13.12 Q12.516,12.832 12.516,12.736 L12.516,12.328 L12.516,11.872 L12.396,11.464 Q12.396,11.32 12.492,11.092 Q12.588,10.864 12.696,10.636 Q12.804,10.408 12.9,10.216 Q12.996,10.024 12.996,9.928 L12.996,9.592 L12.924,8.656 Q12.924,8.512 12.888,8.356 Q12.852,8.2 12.66,8.2 Q12.516,8.2 12.336,8.272 Q12.156,8.344 11.976,8.428 Q11.796,8.512 11.64,8.584 Q11.484,8.656 11.388,8.656 L11.196,8.656 Q11.028,8.56 11.112,8.284 Q11.196,8.008 11.196,7.864 Q11.796,7.024 12.36,6.388 Q12.924,5.752 13.716,5.248 Q13.884,5.152 14.172,5.008 Q14.46,4.864 14.724,4.864 z M26.676,4.6 Q27.18,4.6 27.528,4.78 Q27.876,4.96 28.092,5.272 Q28.308,5.584 28.404,5.992 Q28.5,6.4 28.476,6.856 Q28.476,7.504 27.996,7.9 Q27.516,8.296 27.012,8.584 Q26.556,8.896 26.04,9.136 Q25.524,9.376 25.08,9.664 Q24.636,9.952 24.336,10.336 Q24.036,10.72 24.012,11.32 L24.012,12.328 Q23.964,12.736 24.18,13.132 Q24.396,13.528 24.732,13.528 Q24.756,13.552 24.924,13.456 Q25.092,13.36 25.296,13.228 Q25.5,13.096 25.704,12.952 Q25.908,12.808 26.004,12.736 Q26.364,12.568 26.568,12.46 Q26.772,12.352 26.868,12.4 Q27.036,12.4 27.156,12.448 Q27.276,12.496 27.276,12.808 Q27.228,13.336 26.82,13.828 Q26.412,14.32 25.932,14.74 Q25.452,15.16 24.996,15.472 Q24.54,15.784 24.396,15.928 Q23.988,16.288 23.64,16.312 Q23.292,16.336 22.932,16.336 Q22.716,16.312 22.488,16.144 Q22.26,15.976 22.08,15.748 Q21.9,15.52 21.804,15.28 Q21.708,15.04 21.732,14.872 L21.732,14.464 Q21.732,14.296 21.636,14.104 Q21.588,14.008 21.54,13.936 L21.612,13.456 L21.612,13.072 Q21.612,12.976 21.66,12.556 Q21.708,12.136 21.78,11.644 Q21.852,11.152 21.912,10.708 Q21.972,10.264 21.996,10.12 Q22.092,10.048 22.092,9.976 Q22.092,9.904 22.068,9.832 Q22.044,9.76 22.044,9.652 Q22.044,9.544 22.14,9.4 Q22.14,9.112 22.26,8.8 Q22.332,8.632 22.404,8.464 L22.74,7.672 Q22.788,7.144 23.244,6.58 Q23.7,6.016 24.312,5.56 Q24.924,5.104 25.572,4.828 Q26.22,4.552 26.676,4.6 z M25.596,6.4 Q25.476,6.4 25.356,6.58 Q25.236,6.76 25.116,6.976 Q24.996,7.24 24.876,7.528 Q24.852,7.648 24.804,7.804 Q24.756,7.96 24.732,8.092 Q24.708,8.224 24.756,8.308 Q24.804,8.392 24.948,8.392 Q25.068,8.416 25.308,8.344 Q25.548,8.272 25.8,8.128 Q26.052,7.984 26.256,7.78 Q26.46,7.576 26.484,7.336 L26.484,6.928 Q26.484,6.808 26.412,6.712 Q26.34,6.616 26.244,6.568 Q26.148,6.496 26.004,6.448 z" fill="#229454" fill-opacity="0.581"/>
    </g>
  </g>
  <g id="II" display="none">
    <g>
      <path d="M19.68,2.464 Q19.752,2.464 19.92,2.5 Q20.088,2.536 20.28,2.572 Q20.472,2.608 20.652,2.632 Q20.832,2.656 20.928,2.656 Q20.976,2.656 21.096,2.752 Q21.216,2.848 21.324,2.992 Q21.432,3.136 21.516,3.316 Q21.6,3.496 21.6,3.664 Q21.6,3.76 21.312,3.832 Q21.024,3.904 20.664,3.976 Q20.304,4.048 20.016,4.144 Q19.728,4.24 19.728,4.384 L19.728,6.064 Q19.776,6.256 19.848,6.424 Q19.896,6.568 19.944,6.712 Q19.992,6.856 19.992,6.928 L19.728,8.056 Q19.728,8.128 19.764,8.32 Q19.8,8.512 19.86,8.728 Q19.92,8.944 19.956,9.136 Q19.992,9.328 19.992,9.4 L20.208,10.6 Q20.208,11.104 20.1,11.536 Q19.992,11.968 19.992,12.136 L19.992,12.808 Q19.992,12.952 19.86,13.06 Q19.728,13.168 19.728,13.672 Q19.728,13.768 19.8,13.9 Q19.872,14.032 19.98,14.14 Q20.088,14.248 20.208,14.32 Q20.328,14.392 20.4,14.392 L20.928,14.536 Q21.6,14.848 21.6,15.544 Q21.6,15.832 21.204,16.012 Q20.808,16.192 20.4,16.192 L19.08,16.192 L18.192,15.928 Q18.048,15.928 17.784,16 Q17.52,16.072 17.232,16.168 Q16.944,16.264 16.704,16.336 Q16.464,16.408 16.392,16.408 Q16.248,16.408 15.996,16.252 Q15.744,16.096 15.744,15.928 Q15.744,15.664 16.02,15.46 Q16.296,15.256 16.62,15.052 Q16.944,14.848 17.172,14.608 Q17.4,14.368 17.328,14.008 Q17.136,13.648 17.232,13.468 Q17.328,13.288 17.328,13.12 L17.328,7.384 L17.064,6.736 Q17.112,6.472 17.184,6.232 Q17.232,6.04 17.28,5.86 Q17.328,5.68 17.328,5.584 Q17.328,5.104 17.256,4.828 Q17.184,4.552 17.064,4.384 Q16.944,4.264 16.8,4.228 Q16.656,4.192 16.5,4.18 Q16.344,4.168 16.176,4.144 Q16.008,4.12 15.864,4.048 Q15.72,3.952 15.624,3.736 Q15.528,3.52 15.528,3.064 Q15.528,2.968 15.552,2.872 Q15.576,2.8 15.612,2.728 Q15.648,2.656 15.744,2.656 L17.064,2.656 Q17.16,2.656 17.292,2.68 Q17.424,2.704 17.544,2.752 Q17.664,2.8 17.808,2.848 Q17.952,2.848 18.168,2.824 Q18.384,2.8 18.576,2.752 Q18.816,2.704 19.08,2.656 L19.344,2.656 Q19.44,2.656 19.584,2.56 L19.68,2.464 z M12.672,2.464 Q12.744,2.464 12.912,2.5 Q13.08,2.536 13.272,2.572 Q13.464,2.608 13.644,2.632 Q13.824,2.656 13.92,2.656 Q13.968,2.656 14.088,2.752 Q14.208,2.848 14.316,2.992 Q14.424,3.136 14.508,3.316 Q14.592,3.496 14.592,3.664 Q14.592,3.76 14.304,3.832 Q14.016,3.904 13.656,3.976 Q13.296,4.048 13.008,4.144 Q12.72,4.24 12.72,4.384 L12.72,6.064 Q12.768,6.256 12.84,6.424 Q12.888,6.568 12.936,6.712 Q12.984,6.856 12.984,6.928 L12.72,8.056 Q12.72,8.128 12.756,8.32 Q12.792,8.512 12.852,8.728 Q12.912,8.944 12.948,9.136 Q12.984,9.328 12.984,9.4 L13.2,10.6 Q13.2,11.104 13.092,11.536 Q12.984,11.968 12.984,12.136 L12.984,12.808 Q12.984,12.952 12.852,13.06 Q12.72,13.168 12.72,13.672 Q12.72,13.768 12.792,13.9 Q12.864,14.032 12.972,14.14 Q13.08,14.248 13.2,14.32 Q13.32,14.392 13.392,14.392 L13.92,14.536 Q14.592,14.848 14.592,15.544 Q14.592,15.832 14.196,16.012 Q13.8,16.192 13.392,16.192 L12.072,16.192 L11.184,15.928 Q11.04,15.928 10.776,16 Q10.512,16.072 10.224,16.168 Q9.936,16.264 9.696,16.336 Q9.456,16.408 9.384,16.408 Q9.24,16.408 8.988,16.252 Q8.736,16.096 8.736,15.928 Q8.736,15.664 9.012,15.46 Q9.288,15.256 9.612,15.052 Q9.936,14.848 10.164,14.608 Q10.392,14.368 10.32,14.008 Q10.128,13.648 10.224,13.468 Q10.32,13.288 10.32,13.12 L10.32,7.384 L10.056,6.736 Q10.104,6.472 10.176,6.232 Q10.224,6.04 10.272,5.86 Q10.32,5.68 10.32,5.584 Q10.32,5.104 10.248,4.828 Q10.176,4.552 10.056,4.384 Q9.936,4.264 9.792,4.228 Q9.648,4.192 9.492,4.18 Q9.336,4.168 9.168,4.144 Q9,4.12 8.856,4.048 Q8.712,3.952 8.616,3.736 Q8.52,3.52 8.52,3.064 Q8.52,2.968 8.544,2.872 Q8.568,2.8 8.604,2.728 Q8.64,2.656 8.736,2.656 L10.056,2.656 Q10.152,2.656 10.284,2.68 Q10.416,2.704 10.536,2.752 Q10.656,2.8 10.8,2.848 Q10.944,2.848 11.16,2.824 Q11.376,2.8 11.568,2.752 Q11.808,2.704 12.072,2.656 L12.336,2.656 Q12.432,2.656 12.576,2.56 L12.672,2.464 z" clip-path="url(#Clip_3)" filter="url(#Shadow_4)" fill="rgba(0,0,0,0.75)"/>
      <text transform="matrix(1, 0, 0, 1, 15, 14.5)">
        <tspan x="-7.008" y="1.5" font-family="Trattatello" font-size="24" fill="#B3A7A7">II</tspan>
      </text>
      <path d="M12.672,2.464 Q12.744,2.464 12.912,2.5 Q13.08,2.536 13.272,2.572 Q13.464,2.608 13.644,2.632 Q13.824,2.656 13.92,2.656 Q13.968,2.656 14.088,2.752 Q14.208,2.848 14.316,2.992 Q14.424,3.136 14.508,3.316 Q14.592,3.496 14.592,3.664 Q14.592,3.76 14.304,3.832 Q14.016,3.904 13.656,3.976 Q13.296,4.048 13.008,4.144 Q12.72,4.24 12.72,4.384 L12.72,6.064 Q12.768,6.256 12.84,6.424 Q12.888,6.568 12.936,6.712 Q12.984,6.856 12.984,6.928 L12.72,8.056 Q12.72,8.128 12.756,8.32 Q12.792,8.512 12.852,8.728 Q12.912,8.944 12.948,9.136 Q12.984,9.328 12.984,9.4 L13.2,10.6 Q13.2,11.104 13.092,11.536 Q12.984,11.968 12.984,12.136 L12.984,12.808 Q12.984,12.952 12.852,13.06 Q12.72,13.168 12.72,13.672 Q12.72,13.768 12.792,13.9 Q12.864,14.032 12.972,14.14 Q13.08,14.248 13.2,14.32 Q13.32,14.392 13.392,14.392 L13.92,14.536 Q14.592,14.848 14.592,15.544 Q14.592,15.832 14.196,16.012 Q13.8,16.192 13.392,16.192 L12.984,16.192 L12.528,16.192 L12.072,16.192 L11.184,15.928 Q11.04,15.928 10.776,16 Q10.512,16.072 10.224,16.168 Q9.936,16.264 9.696,16.336 Q9.456,16.408 9.384,16.408 Q9.24,16.408 8.988,16.252 Q8.736,16.096 8.736,15.928 Q8.736,15.664 9.012,15.46 Q9.288,15.256 9.612,15.052 Q9.936,14.848 10.164,14.608 Q10.392,14.368 10.32,14.008 Q10.128,13.648 10.224,13.468 Q10.32,13.288 10.32,13.12 L10.32,12.472 L10.32,10.864 L10.32,7.384 L10.056,6.736 Q10.104,6.472 10.176,6.232 Q10.224,6.04 10.272,5.86 Q10.32,5.68 10.32,5.584 Q10.32,5.104 10.248,4.828 Q10.176,4.552 10.056,4.384 Q9.936,4.264 9.792,4.228 Q9.648,4.192 9.492,4.18 Q9.336,4.168 9.168,4.144 Q9,4.12 8.856,4.048 Q8.712,3.952 8.616,3.736 Q8.52,3.52 8.52,3.064 Q8.52,2.968 8.544,2.872 Q8.568,2.8 8.604,2.728 Q8.64,2.656 8.736,2.656 L9.192,2.656 L10.056,2.656 Q10.152,2.656 10.284,2.68 Q10.416,2.704 10.536,2.752 Q10.656,2.8 10.8,2.848 Q10.944,2.848 11.16,2.824 Q11.376,2.8 11.568,2.752 Q11.808,2.704 12.072,2.656 L12.336,2.656 Q12.432,2.656 12.576,2.56 z M19.68,2.464 Q19.752,2.464 19.92,2.5 Q20.088,2.536 20.28,2.572 Q20.472,2.608 20.652,2.632 Q20.832,2.656 20.928,2.656 Q20.976,2.656 21.096,2.752 Q21.216,2.848 21.324,2.992 Q21.432,3.136 21.516,3.316 Q21.6,3.496 21.6,3.664 Q21.6,3.76 21.312,3.832 Q21.024,3.904 20.664,3.976 Q20.304,4.048 20.016,4.144 Q19.728,4.24 19.728,4.384 L19.728,6.064 Q19.776,6.256 19.848,6.424 Q19.896,6.568 19.944,6.712 Q19.992,6.856 19.992,6.928 L19.728,8.056 Q19.728,8.128 19.764,8.32 Q19.8,8.512 19.86,8.728 Q19.92,8.944 19.956,9.136 Q19.992,9.328 19.992,9.4 L20.208,10.6 Q20.208,11.104 20.1,11.536 Q19.992,11.968 19.992,12.136 L19.992,12.808 Q19.992,12.952 19.86,13.06 Q19.728,13.168 19.728,13.672 Q19.728,13.768 19.8,13.9 Q19.872,14.032 19.98,14.14 Q20.088,14.248 20.208,14.32 Q20.328,14.392 20.4,14.392 L20.928,14.536 Q21.6,14.848 21.6,15.544 Q21.6,15.832 21.204,16.012 Q20.808,16.192 20.4,16.192 L19.992,16.192 L19.536,16.192 L19.08,16.192 L18.192,15.928 Q18.048,15.928 17.784,16 Q17.52,16.072 17.232,16.168 Q16.944,16.264 16.704,16.336 Q16.464,16.408 16.392,16.408 Q16.248,16.408 15.996,16.252 Q15.744,16.096 15.744,15.928 Q15.744,15.664 16.02,15.46 Q16.296,15.256 16.62,15.052 Q16.944,14.848 17.172,14.608 Q17.4,14.368 17.328,14.008 Q17.136,13.648 17.232,13.468 Q17.328,13.288 17.328,13.12 L17.328,12.472 L17.328,10.864 L17.328,7.384 L17.064,6.736 Q17.112,6.472 17.184,6.232 Q17.232,6.04 17.28,5.86 Q17.328,5.68 17.328,5.584 Q17.328,5.104 17.256,4.828 Q17.184,4.552 17.064,4.384 Q16.944,4.264 16.8,4.228 Q16.656,4.192 16.5,4.18 Q16.344,4.168 16.176,4.144 Q16.008,4.12 15.864,4.048 Q15.72,3.952 15.624,3.736 Q15.528,3.52 15.528,3.064 Q15.528,2.968 15.552,2.872 Q15.576,2.8 15.612,2.728 Q15.648,2.656 15.744,2.656 L16.2,2.656 L17.064,2.656 Q17.16,2.656 17.292,2.68 Q17.424,2.704 17.544,2.752 Q17.664,2.8 17.808,2.848 Q17.952,2.848 18.168,2.824 Q18.384,2.8 18.576,2.752 Q18.816,2.704 19.08,2.656 L19.344,2.656 Q19.44,2.656 19.584,2.56 z" fill="#229454" fill-opacity="0.581"/>
    </g>
  </g>
  <g id="3" display="none">
    <g>
      <path d="M15.084,2.32 Q15.276,2.32 15.48,2.392 Q15.684,2.464 15.876,2.464 Q16.068,2.464 16.26,2.428 Q16.452,2.392 16.596,2.392 Q17.508,2.488 18.144,2.992 Q18.78,3.496 19.068,4.048 Q19.356,4.624 19.332,5.188 Q19.308,5.752 19.104,6.28 Q18.9,6.808 18.564,7.276 Q18.228,7.744 17.868,8.128 Q17.676,8.272 17.316,8.404 Q16.956,8.536 16.596,8.584 Q16.356,8.704 16.164,8.668 Q15.972,8.632 16.068,8.8 Q16.068,8.848 16.152,8.86 Q16.236,8.872 16.284,8.92 Q16.644,8.992 17.004,9.04 Q17.364,9.088 17.712,9.184 Q18.06,9.28 18.384,9.448 Q18.708,9.616 19.02,9.928 Q19.476,10.384 19.74,10.864 Q20.004,11.344 20.004,11.8 Q20.124,12.448 19.908,13.252 Q19.692,14.056 19.284,14.608 Q18.78,15.208 18.036,15.52 Q17.292,15.832 16.668,16.144 Q16.164,16.36 15.612,16.432 Q15.06,16.504 14.52,16.504 Q13.98,16.504 13.512,16.456 Q13.044,16.408 12.732,16.408 Q12.132,16.408 11.712,16.264 Q11.292,16.12 10.932,16 Q10.764,15.952 10.548,15.82 Q10.332,15.688 10.152,15.52 Q9.972,15.352 9.852,15.16 Q9.732,14.968 9.732,14.8 Q9.684,14.608 9.9,14.536 Q10.116,14.464 10.26,14.272 Q10.356,14.056 10.476,13.864 Q10.596,13.672 10.74,13.552 Q10.884,13.432 11.04,13.432 Q11.196,13.432 11.34,13.6 Q11.532,13.864 12.06,14.284 Q12.588,14.704 13.272,15.016 Q13.956,15.328 14.676,15.388 Q15.396,15.448 15.996,14.944 Q16.308,14.632 16.62,14.224 Q16.932,13.816 16.932,13.264 Q16.932,12.784 16.788,12.28 Q16.644,11.776 16.38,11.332 Q16.116,10.888 15.732,10.552 Q15.348,10.216 14.868,10.072 Q14.676,9.952 14.328,9.832 Q13.98,9.712 13.476,9.592 Q13.284,9.568 13.128,9.604 Q12.972,9.64 12.84,9.664 Q12.708,9.688 12.588,9.64 Q12.468,9.592 12.348,9.4 Q12.276,9.256 12.204,9.076 Q12.132,8.896 12.108,8.74 Q12.084,8.584 12.12,8.464 Q12.156,8.344 12.276,8.32 Q12.588,8.2 13.092,8.2 Q13.596,8.2 14.136,8.116 Q14.676,8.032 15.204,7.768 Q15.732,7.504 16.14,6.856 Q16.332,6.664 16.368,6.4 Q16.404,6.136 16.404,5.8 Q16.356,5.584 16.26,5.296 Q16.164,5.008 15.996,4.744 Q15.828,4.48 15.6,4.336 Q15.372,4.192 15.084,4.264 Q14.82,4.264 14.676,4.252 Q14.532,4.24 14.268,4.192 Q14.004,4.192 13.8,4.24 Q13.596,4.288 13.332,4.384 Q13.308,4.408 13.164,4.588 Q13.02,4.768 12.828,4.996 Q12.636,5.224 12.396,5.452 Q12.156,5.68 11.94,5.8 Q11.58,5.944 11.256,5.764 Q10.932,5.584 10.932,4.936 Q10.956,4.816 10.932,4.744 Q10.908,4.672 10.872,4.6 Q10.836,4.528 10.824,4.456 Q10.812,4.384 10.86,4.264 Q11.004,3.952 11.46,3.616 Q11.916,3.28 12.516,3.004 Q13.116,2.728 13.8,2.536 Q14.484,2.344 15.084,2.32 z" clip-path="url(#Clip_5)" filter="url(#Shadow_6)" fill="rgba(0,0,0,0.75)"/>
      <text transform="matrix(1, 0, 0, 1, 15, 14.5)">
        <tspan x="-5.532" y="1.5" font-family="Trattatello" font-size="24" fill="#B3A7A7">3</tspan>
      </text>
      <path d="M10.86,4.264 Q11.004,3.952 11.46,3.616 Q11.916,3.28 12.516,3.004 Q13.116,2.728 13.8,2.536 Q14.484,2.344 15.084,2.32 Q15.276,2.32 15.48,2.392 Q15.684,2.464 15.876,2.464 Q16.068,2.464 16.26,2.428 Q16.452,2.392 16.596,2.392 Q17.508,2.488 18.144,2.992 Q18.78,3.496 19.068,4.048 Q19.356,4.624 19.332,5.188 Q19.308,5.752 19.104,6.28 Q18.9,6.808 18.564,7.276 Q18.228,7.744 17.868,8.128 Q17.676,8.272 17.316,8.404 Q16.956,8.536 16.596,8.584 Q16.356,8.704 16.164,8.668 Q15.972,8.632 16.068,8.8 Q16.068,8.848 16.152,8.86 Q16.236,8.872 16.284,8.92 Q16.644,8.992 17.004,9.04 Q17.364,9.088 17.712,9.184 Q18.06,9.28 18.384,9.448 Q18.708,9.616 19.02,9.928 Q19.476,10.384 19.74,10.864 Q20.004,11.344 20.004,11.8 Q20.124,12.448 19.908,13.252 Q19.692,14.056 19.284,14.608 Q18.78,15.208 18.036,15.52 Q17.292,15.832 16.668,16.144 Q16.164,16.36 15.612,16.432 Q15.06,16.504 14.52,16.504 Q13.98,16.504 13.512,16.456 Q13.044,16.408 12.732,16.408 Q12.132,16.408 11.712,16.264 Q11.292,16.12 10.932,16 Q10.764,15.952 10.548,15.82 Q10.332,15.688 10.152,15.52 Q9.972,15.352 9.852,15.16 Q9.732,14.968 9.732,14.8 Q9.684,14.608 9.9,14.536 Q10.116,14.464 10.26,14.272 Q10.356,14.056 10.476,13.864 Q10.596,13.672 10.74,13.552 Q10.884,13.432 11.04,13.432 Q11.196,13.432 11.34,13.6 Q11.532,13.864 12.06,14.284 Q12.588,14.704 13.272,15.016 Q13.956,15.328 14.676,15.388 Q15.396,15.448 15.996,14.944 Q16.308,14.632 16.62,14.224 Q16.932,13.816 16.932,13.264 Q16.932,12.784 16.788,12.28 Q16.644,11.776 16.38,11.332 Q16.116,10.888 15.732,10.552 Q15.348,10.216 14.868,10.072 Q14.676,9.952 14.328,9.832 Q13.98,9.712 13.476,9.592 Q13.284,9.568 13.128,9.604 Q12.972,9.64 12.84,9.664 Q12.708,9.688 12.588,9.64 Q12.468,9.592 12.348,9.4 Q12.276,9.256 12.204,9.076 Q12.132,8.896 12.108,8.74 Q12.084,8.584 12.12,8.464 Q12.156,8.344 12.276,8.32 Q12.588,8.2 13.092,8.2 Q13.596,8.2 14.136,8.116 Q14.676,8.032 15.204,7.768 Q15.732,7.504 16.14,6.856 Q16.332,6.664 16.368,6.4 Q16.404,6.136 16.404,5.8 Q16.356,5.584 16.26,5.296 Q16.164,5.008 15.996,4.744 Q15.828,4.48 15.6,4.336 Q15.372,4.192 15.084,4.264 Q14.82,4.264 14.676,4.252 Q14.532,4.24 14.268,4.192 Q14.004,4.192 13.8,4.24 Q13.596,4.288 13.332,4.384 Q13.308,4.408 13.164,4.588 Q13.02,4.768 12.828,4.996 Q12.636,5.224 12.396,5.452 Q12.156,5.68 11.94,5.8 Q11.58,5.944 11.256,5.764 Q10.932,5.584 10.932,4.936 Q10.956,4.816 10.932,4.744 Q10.908,4.672 10.872,4.6 Q10.836,4.528 10.824,4.456 Q10.812,4.384 10.86,4.264 z" fill="#229454" fill-opacity="0.581"/>
    </g>
  </g>
</svg>
