<?xml version="1.0" encoding="UTF-8"?>
<!DOCTYPE svg PUBLIC "-//W3C//DTD SVG 1.1//EN" "http://www.w3.org/Graphics/SVG/1.1/DTD/svg11.dtd">
<svg version="1.1" xmlns="http://www.w3.org/2000/svg" xmlns:xlink="http://www.w3.org/1999/xlink" x="0" y="0" width="595.276" height="841.89" viewBox="0, 0, 595.276, 841.89">
  <defs>
    <pattern id="Pattern_1" patternUnits="userSpaceOnUse" x="16.5" y="17" width="80" height="80" patternTransform="matrix(1.1, 0, 0, 1.1, 0, 0)">
      <g transform="translate(-0, -0)">
        <path d="M0,0 L80,0 L80,80 L0,80 L0,0 z" fill="#C3B599"/>
        <path d="M0,0 L20,20 L0,40 L0,27.5 L7.5,20 L0,12.5 L0,0 z" fill="#726657"/>
        <path d="M0,40 L20,60 L0,80 L0,67.5 L7.5,60 L0,52.5 L0,40 z" fill="#E0D9CA"/>
        <path d="M20,20 L40,0 L60,20 L40,40 L20,20 z M47.5,20 L40,12.5 L32.5,20 L40,27.5 L47.5,20 z" fill="#E0D9CA"/>
        <path d="M20,60 L40,40 L60,60 L40,80 L20,60 z M47.5,60 L40,52.5 L32.5,60 L40,67.5 L47.5,60 z" fill="#726657"/>
        <path d="M80,0 L60,20 L80,40 L80,27.5 L72.5,20 L80,12.5 L80,0 z" fill="#726657"/>
        <path d="M80,40 L60,60 L80,80 L80,67.5 L72.5,60 L80,52.5 L80,40 z" fill="#E0D9CA"/>
      </g>
    </pattern>
    <linearGradient id="Gradient_2" gradientUnits="userSpaceOnUse" x1="156.148" y1="105" x2="343.148" y2="105">
      <stop offset="0" stop-color="#FFFFFF"/>
      <stop offset="1" stop-color="#000000"/>
    </linearGradient>
    <pattern id="Pattern_3" patternUnits="userSpaceOnUse" x="43.384" y="58.284" width="80" height="80" patternTransform="matrix(0.149, -0.134, 0.134, 0.149, 0, 0)">
      <g transform="translate(-0, 0)">
        <path d="M0,-0 L80,-0 L80,80 L0,80 L0,-0 z" fill="#ECEDDB"/>
        <path d="M0,40 L0,-0 L40,40 L40,40 L80,-0 L80,40 L40,80 L0,40 z" fill="#EF2234"/>
      </g>
    </pattern>
    <radialGradient id="Gradient_4" gradientUnits="userSpaceOnUse" cx="273.293" cy="122.283" r="45.432">
      <stop offset="0" stop-color="#FE914F"/>
      <stop offset="0.355" stop-color="#ED2713"/>
      <stop offset="1" stop-color="#9E0000"/>
    </radialGradient>
    <pattern id="Pattern_5" patternUnits="userSpaceOnUse" x="43.384" y="58.284" width="80" height="80" patternTransform="matrix(0.149, -0.134, 0.134, 0.149, 0, 0)">
      <g transform="translate(-0, 0)">
        <path d="M0,-0 L80,-0 L80,80 L0,80 L0,-0 z" fill="#ECEDDB"/>
        <path d="M0,40 L0,-0 L40,40 L40,40 L80,-0 L80,40 L40,80 L0,40 z" fill="#EF2234"/>
      </g>
    </pattern>
    <radialGradient id="Gradient_6" gradientUnits="userSpaceOnUse" cx="277.844" cy="116.271" r="59.933">
      <stop offset="0" stop-color="#FE914F"/>
      <stop offset="0.355" stop-color="#ED2713"/>
      <stop offset="1" stop-color="#9E0000"/>
    </radialGradient>
    <radialGradient id="Gradient_7" gradientUnits="userSpaceOnUse" cx="256.221" cy="117.851" r="54.243">
      <stop offset="0" stop-color="#FE914F"/>
      <stop offset="0.355" stop-color="#ED2713"/>
      <stop offset="1" stop-color="#9E0000"/>
    </radialGradient>
    <pattern id="Pattern_8" patternUnits="userSpaceOnUse" x="43.384" y="58.284" width="80" height="80" patternTransform="matrix(0.149, -0.134, 0.134, 0.149, 0, 0)">
      <g transform="translate(-0, 0)">
        <path d="M0,-0 L80,-0 L80,80 L0,80 L0,-0 z" fill="#ECEDDB"/>
        <path d="M0,40 L0,-0 L40,40 L40,40 L80,-0 L80,40 L40,80 L0,40 z" fill="#EF2234"/>
      </g>
    </pattern>
  </defs>
  <g id="Layer_1">
    <g>
      <path d="M16.5,17 L135.5,17 L135.5,192 L16.5,192 L16.5,17 z" fill="url(#Pattern_1)"/>
      <path d="M16.5,17 L135.5,17 L135.5,192 L16.5,192 L16.5,17 z" fill-opacity="0" stroke="#418052" stroke-width="29" stroke-opacity="0.356" stroke-linecap="round" stroke-linejoin="bevel"/>
    </g>
    <g>
      <path d="M156.148,17.5 L343.148,17.5 L343.148,192.5 L156.148,192.5 L156.148,17.5 z" fill="url(#Gradient_2)"/>
      <path d="M156.148,17.5 L343.148,17.5 L343.148,192.5 L156.148,192.5 L156.148,17.5 z" fill-opacity="0" stroke="#418052" stroke-width="29" stroke-opacity="0.356" stroke-linecap="round" stroke-linejoin="bevel"/>
    </g>
  </g>
  <g id="Layer_2" display="none">
    <text transform="matrix(1, 0, 0, 1, 76, 108)">
      <tspan x="-34.2" y="35" font-family="Trattatello" font-size="144" fill="#000000">P</tspan>
    </text>
    <path d="M50.152,58.284 Q51.16,58.284 51.448,58.5 Q51.736,58.716 52.6,59.868 L77.368,59.868 L89.464,62.172 L93.496,62.172 Q97.528,62.172 100.336,65.052 Q103.144,67.932 104.872,71.748 Q106.6,75.564 107.392,79.452 Q108.184,83.34 108.184,85.5 Q108.184,87.948 107.824,90.972 Q107.464,93.996 106.384,96.948 Q105.304,99.9 103.144,102.348 Q100.984,104.796 97.384,105.804 Q96.808,105.804 95.8,106.164 Q94.792,106.524 93.784,107.028 Q92.776,107.532 91.912,107.892 Q91.048,108.252 90.616,108.252 Q89.608,108.252 87.808,108.036 Q86.008,107.82 84.208,107.172 Q82.408,106.524 81.112,105.588 Q79.816,104.652 79.816,103.068 Q79.816,101.052 80.968,100.332 Q82.12,99.612 83.92,99.252 Q85.72,98.892 87.808,98.388 Q89.896,97.884 91.696,96.372 Q93.496,94.86 94.648,91.62 Q95.8,88.38 95.8,82.62 Q95.8,81.756 95.656,80.676 Q95.512,79.596 94.648,78.588 Q93.496,77.004 91.336,75.708 Q89.176,74.412 86.8,73.548 Q84.424,72.684 82.408,72.252 Q80.392,71.82 79.816,71.82 L77.368,71.82 Q76.792,71.82 76.072,72.252 Q75.352,72.684 74.776,73.26 Q74.2,73.836 73.984,74.556 Q73.768,75.276 74.2,75.852 L74.2,94.716 L74.2,101.484 L74.2,109.836 L75.784,116.316 Q75.352,118.332 74.92,119.916 Q74.632,121.356 74.416,122.724 Q74.2,124.092 74.2,124.668 Q74.2,128.7 76.36,129.78 Q78.52,130.86 81.04,130.932 Q83.56,131.004 85.72,131.292 Q87.88,131.58 87.88,133.884 L87.88,135.468 Q87.88,136.044 87.448,136.98 Q87.016,137.916 86.44,138.852 Q85.864,139.788 85.144,140.436 Q84.424,141.084 83.848,141.084 L81.4,141.084 Q80.248,141.084 77.8,140.292 Q75.352,139.5 74.2,139.5 L64.984,139.5 Q64.408,139.5 62.608,139.716 Q60.808,139.932 58.648,140.292 Q56.488,140.652 54.472,140.868 Q52.456,141.084 51.448,141.084 Q49.864,141.084 48.424,141.012 Q46.984,140.94 45.904,140.364 Q44.824,139.788 44.104,138.708 Q43.384,137.628 43.384,135.468 Q43.384,134.46 43.456,133.092 Q43.528,131.724 44.032,130.5 Q44.536,129.276 45.544,128.412 Q46.552,127.548 48.568,127.548 L50.152,128.7 L55.48,128.7 Q59.368,128.7 59.368,124.668 L59.368,120.348 L60.952,115.02 L59.368,112.284 Q59.656,111.132 60.088,110.124 Q60.376,109.26 60.664,108.396 Q60.952,107.532 60.952,107.1 Q60.952,106.092 60.16,104.364 Q59.368,102.636 59.368,101.484 Q59.368,101.052 59.584,100.764 Q59.8,100.476 60.16,99.9 Q60.52,99.324 60.736,98.46 Q60.952,97.596 60.952,95.868 L60.952,90.684 L60.952,87.804 Q60.952,86.94 60.16,85.86 Q59.368,84.78 59.368,82.62 L59.368,78.588 Q59.368,77.148 60.088,75.276 Q60.52,74.268 60.952,73.116 Q60.952,70.956 59.08,69.372 Q57.208,67.788 54.184,67.788 L52.6,67.788 Q52.168,67.788 50.872,67.5 Q49.576,67.212 48.136,66.708 Q46.696,66.204 45.616,65.484 Q44.536,64.764 44.536,63.9 Q44.536,62.604 45.184,61.596 Q45.832,60.588 46.768,59.868 Q47.704,59.148 48.64,58.716 Q49.576,58.284 50.152,58.284 z" fill="url(#Pattern_3)"/>
    <text transform="matrix(1, 0, 0, 1, 247.5, 239)">
      <tspan x="-76.104" y="-95.5" font-family="Trattatello" font-size="144" fill="#000000">one</tspan>
    </text>
    <path d="M201.076,72.1 Q203.092,72.1 206.044,72.244 Q208.996,72.388 211.012,73.252 Q213.172,73.252 213.82,74.98 Q214.468,76.708 215.476,78.868 Q216.052,79.444 216.844,80.452 Q217.636,81.46 218.284,82.54 Q218.932,83.62 219.364,84.772 Q219.796,85.924 219.796,86.788 L218.644,99.604 Q218.644,103.636 216.916,108.532 Q215.188,113.428 211.876,117.316 Q210.724,118.468 210.22,119.836 Q209.716,121.204 209.212,122.644 Q208.708,124.084 208.06,125.596 Q207.412,127.108 206.26,128.548 Q205.396,129.556 204.316,130.996 Q203.236,132.436 202.012,133.948 Q200.788,135.46 199.42,136.684 Q198.052,137.908 196.612,138.484 Q194.452,139.636 193.012,140.5 Q191.572,141.364 190.42,141.94 Q189.268,142.516 188.044,142.732 Q186.82,142.948 185.38,142.948 Q183.22,142.948 181.348,141.94 Q179.476,140.932 178.108,139.276 Q176.74,137.62 175.876,135.532 Q175.012,133.444 175.012,131.284 L175.012,121.636 Q175.012,120.772 174.436,120.052 Q173.86,119.332 173.86,116.02 Q173.716,111.844 175.876,105.94 Q178.036,100.036 180.988,94.348 Q183.94,88.66 186.892,84.268 Q189.844,79.876 191.428,78.868 Q193.012,77.86 194.092,76.636 Q195.172,75.412 196.18,74.404 Q197.188,73.396 198.268,72.748 Q199.348,72.1 201.076,72.1 z M201.796,88.516 Q199.492,88.516 197.116,90.46 Q194.74,92.404 192.724,94.924 Q190.708,97.444 189.124,99.964 Q187.54,102.484 186.964,103.636 L185.524,109.108 Q184.948,111.124 184.588,112.996 Q184.228,114.868 184.228,115.3 L184.228,118.036 Q184.804,118.468 185.236,119.764 Q185.668,121.06 186.316,122.356 Q186.964,123.652 187.828,124.66 Q188.692,125.668 190.276,125.668 Q193.156,124.372 195.604,123.076 Q197.62,121.924 199.564,120.628 Q201.508,119.332 202.228,118.036 Q203.092,116.02 204.172,113.284 Q205.252,110.548 206.26,108.1 Q205.972,106.948 206.908,105.796 Q207.844,104.644 207.844,103.636 L207.844,99.604 Q207.844,98.884 207.484,97.084 Q207.124,95.284 206.332,93.34 Q205.54,91.396 204.388,89.956 Q203.236,88.516 201.796,88.516 z M243.844,73.684 Q245.428,73.684 246.292,74.692 Q247.156,75.7 247.876,76.852 Q248.308,77.86 248.164,79.588 Q248.02,81.316 247.66,83.044 Q247.3,84.772 246.94,86.356 Q246.58,87.94 246.58,88.516 L247.012,90.82 L248.596,93.7 Q249.172,93.7 250.828,92.044 Q252.484,90.388 254.716,87.94 Q256.948,85.492 259.396,82.684 Q261.844,79.876 264.148,77.428 Q266.452,74.98 268.324,73.324 Q270.196,71.668 271.06,71.668 Q272.212,71.668 273.004,73.108 Q273.796,74.548 274.516,76.132 Q275.236,78.004 275.812,80.452 Q275.956,82.468 275.524,86.068 Q275.092,89.668 274.156,93.916 Q273.22,98.164 272.14,102.556 Q271.06,106.948 270.124,110.62 Q269.188,114.292 268.54,116.74 Q267.892,119.188 267.892,119.332 Q267.892,119.908 267.748,120.7 Q267.604,121.492 267.604,122.14 Q267.604,122.788 267.964,123.22 Q268.324,123.652 269.476,123.652 Q270.34,123.076 271.204,122.5 Q271.924,121.924 272.788,121.348 Q273.652,120.772 274.66,120.052 Q277.108,118.468 279.196,117.1 Q281.284,115.732 281.86,115.732 Q282.724,115.732 283.732,116.668 Q284.74,117.604 284.74,118.468 Q284.74,118.756 283.804,120.052 Q282.868,121.348 281.572,122.788 Q280.276,124.228 278.98,125.38 Q277.684,126.532 277.108,126.532 Q277.108,127.684 276.316,128.692 Q275.524,129.7 274.66,129.7 Q272.356,132.148 270.772,134.452 Q269.188,136.756 267.604,138.7 Q266.02,140.644 264.148,141.796 Q262.276,142.948 259.396,142.948 Q258.388,142.948 257.308,142.228 Q256.228,141.508 255.364,140.428 Q254.5,139.348 253.996,138.124 Q253.492,136.9 253.492,136.036 L253.06,130.852 Q253.924,126.964 255.292,122.5 Q256.66,118.036 257.812,114.148 Q258.964,110.836 259.684,107.812 Q260.404,104.788 260.692,102.052 L260.692,100.468 Q260.116,96.436 257.812,96.436 Q254.356,96.436 252.34,97.948 Q250.324,99.46 249.028,101.836 Q247.732,104.212 246.796,106.948 Q245.86,109.684 244.708,112.132 Q243.988,112.996 243.772,113.788 Q243.556,114.58 243.844,115.732 Q243.556,117.46 243.196,119.188 Q242.836,120.916 242.26,122.5 Q240.676,127.108 239.236,131.644 Q237.796,136.18 236.644,140.068 Q237.364,141.22 236.428,141.436 Q235.492,141.652 234.628,141.652 Q233.764,141.652 232.18,141.58 Q230.596,141.508 229.084,141.076 Q227.572,140.644 226.348,139.78 Q225.124,138.916 224.98,137.332 Q224.692,134.884 225.556,132.22 Q226.42,129.556 227.5,127.252 Q228.58,124.948 229.588,123.22 Q230.596,121.492 230.596,120.916 L230.596,118.468 L230.596,115.732 L229.876,113.284 Q229.876,112.42 230.452,111.052 Q231.028,109.684 231.676,108.316 Q232.324,106.948 232.9,105.796 Q233.476,104.644 233.476,104.068 L233.476,102.052 L233.044,96.436 Q233.044,95.572 232.828,94.636 Q232.612,93.7 231.46,93.7 Q230.596,93.7 229.516,94.132 Q228.436,94.564 227.356,95.068 Q226.276,95.572 225.34,96.004 Q224.404,96.436 223.828,96.436 L222.676,96.436 Q221.668,95.86 222.172,94.204 Q222.676,92.548 222.676,91.684 Q226.276,86.644 229.66,82.828 Q233.044,79.012 237.796,75.988 Q238.804,75.412 240.532,74.548 Q242.26,73.684 243.844,73.684 z M315.556,72.1 Q318.58,72.1 320.668,73.18 Q322.756,74.26 324.052,76.132 Q325.348,78.004 325.924,80.452 Q326.5,82.9 326.356,85.636 Q326.356,89.524 323.476,91.9 Q320.596,94.276 317.572,96.004 Q314.836,97.876 311.74,99.316 Q308.644,100.756 305.98,102.484 Q303.316,104.212 301.516,106.516 Q299.716,108.82 299.572,112.42 L299.572,118.468 Q299.284,120.916 300.58,123.292 Q301.876,125.668 303.892,125.668 Q304.036,125.812 305.044,125.236 Q306.052,124.66 307.276,123.868 Q308.5,123.076 309.724,122.212 Q310.948,121.348 311.524,120.916 Q313.684,119.908 314.908,119.26 Q316.132,118.612 316.708,118.9 Q317.716,118.9 318.436,119.188 Q319.156,119.476 319.156,121.348 Q318.868,124.516 316.42,127.468 Q313.972,130.42 311.092,132.94 Q308.212,135.46 305.476,137.332 Q302.74,139.204 301.876,140.068 Q299.428,142.228 297.34,142.372 Q295.252,142.516 293.092,142.516 Q291.796,142.372 290.428,141.364 Q289.06,140.356 287.98,138.988 Q286.9,137.62 286.324,136.18 Q285.748,134.74 285.892,133.732 L285.892,131.284 Q285.892,130.276 285.316,129.124 Q285.028,128.548 284.74,128.116 L285.172,125.236 L285.172,122.932 Q285.172,122.356 285.46,119.836 Q285.748,117.316 286.18,114.364 Q286.612,111.412 286.972,108.748 Q287.332,106.084 287.476,105.22 Q288.052,104.788 288.052,104.356 Q288.052,103.924 287.908,103.492 Q287.764,103.06 287.764,102.412 Q287.764,101.764 288.34,100.9 Q288.34,99.172 289.06,97.3 Q289.492,96.292 289.924,95.284 L291.94,90.532 Q292.228,87.364 294.964,83.98 Q297.7,80.596 301.372,77.86 Q305.044,75.124 308.932,73.468 Q312.82,71.812 315.556,72.1 z M309.076,82.9 Q308.356,82.9 307.636,83.98 Q306.916,85.06 306.196,86.356 Q305.476,87.94 304.756,89.668 Q304.612,90.388 304.324,91.324 Q304.036,92.26 303.892,93.052 Q303.748,93.844 304.036,94.348 Q304.324,94.852 305.188,94.852 Q305.908,94.996 307.348,94.564 Q308.788,94.132 310.3,93.268 Q311.812,92.404 313.036,91.18 Q314.26,89.956 314.404,88.516 L314.404,86.068 Q314.404,85.348 313.972,84.772 Q313.54,84.196 312.964,83.908 Q312.388,83.476 311.524,83.188 z" fill="url(#Gradient_4)"/>
  </g>
  <g id="Layer_3" display="none">
    <text transform="matrix(1, 0, 0, 1, 247.5, 238.5)">
      <tspan x="-84.816" y="-95.5" font-family="Trattatello" font-size="144" fill="#000000">two</tspan>
    </text>
    <text transform="matrix(1, 0, 0, 1, 76, 108)">
      <tspan x="-34.2" y="35" font-family="Trattatello" font-size="144" fill="#000000">P</tspan>
    </text>
    <path d="M50.152,58.284 Q51.16,58.284 51.448,58.5 Q51.736,58.716 52.6,59.868 L77.368,59.868 L89.464,62.172 L93.496,62.172 Q97.528,62.172 100.336,65.052 Q103.144,67.932 104.872,71.748 Q106.6,75.564 107.392,79.452 Q108.184,83.34 108.184,85.5 Q108.184,87.948 107.824,90.972 Q107.464,93.996 106.384,96.948 Q105.304,99.9 103.144,102.348 Q100.984,104.796 97.384,105.804 Q96.808,105.804 95.8,106.164 Q94.792,106.524 93.784,107.028 Q92.776,107.532 91.912,107.892 Q91.048,108.252 90.616,108.252 Q89.608,108.252 87.808,108.036 Q86.008,107.82 84.208,107.172 Q82.408,106.524 81.112,105.588 Q79.816,104.652 79.816,103.068 Q79.816,101.052 80.968,100.332 Q82.12,99.612 83.92,99.252 Q85.72,98.892 87.808,98.388 Q89.896,97.884 91.696,96.372 Q93.496,94.86 94.648,91.62 Q95.8,88.38 95.8,82.62 Q95.8,81.756 95.656,80.676 Q95.512,79.596 94.648,78.588 Q93.496,77.004 91.336,75.708 Q89.176,74.412 86.8,73.548 Q84.424,72.684 82.408,72.252 Q80.392,71.82 79.816,71.82 L77.368,71.82 Q76.792,71.82 76.072,72.252 Q75.352,72.684 74.776,73.26 Q74.2,73.836 73.984,74.556 Q73.768,75.276 74.2,75.852 L74.2,94.716 L74.2,101.484 L74.2,109.836 L75.784,116.316 Q75.352,118.332 74.92,119.916 Q74.632,121.356 74.416,122.724 Q74.2,124.092 74.2,124.668 Q74.2,128.7 76.36,129.78 Q78.52,130.86 81.04,130.932 Q83.56,131.004 85.72,131.292 Q87.88,131.58 87.88,133.884 L87.88,135.468 Q87.88,136.044 87.448,136.98 Q87.016,137.916 86.44,138.852 Q85.864,139.788 85.144,140.436 Q84.424,141.084 83.848,141.084 L81.4,141.084 Q80.248,141.084 77.8,140.292 Q75.352,139.5 74.2,139.5 L64.984,139.5 Q64.408,139.5 62.608,139.716 Q60.808,139.932 58.648,140.292 Q56.488,140.652 54.472,140.868 Q52.456,141.084 51.448,141.084 Q49.864,141.084 48.424,141.012 Q46.984,140.94 45.904,140.364 Q44.824,139.788 44.104,138.708 Q43.384,137.628 43.384,135.468 Q43.384,134.46 43.456,133.092 Q43.528,131.724 44.032,130.5 Q44.536,129.276 45.544,128.412 Q46.552,127.548 48.568,127.548 L50.152,128.7 L55.48,128.7 Q59.368,128.7 59.368,124.668 L59.368,120.348 L60.952,115.02 L59.368,112.284 Q59.656,111.132 60.088,110.124 Q60.376,109.26 60.664,108.396 Q60.952,107.532 60.952,107.1 Q60.952,106.092 60.16,104.364 Q59.368,102.636 59.368,101.484 Q59.368,101.052 59.584,100.764 Q59.8,100.476 60.16,99.9 Q60.52,99.324 60.736,98.46 Q60.952,97.596 60.952,95.868 L60.952,90.684 L60.952,87.804 Q60.952,86.94 60.16,85.86 Q59.368,84.78 59.368,82.62 L59.368,78.588 Q59.368,77.148 60.088,75.276 Q60.52,74.268 60.952,73.116 Q60.952,70.956 59.08,69.372 Q57.208,67.788 54.184,67.788 L52.6,67.788 Q52.168,67.788 50.872,67.5 Q49.576,67.212 48.136,66.708 Q46.696,66.204 45.616,65.484 Q44.536,64.764 44.536,63.9 Q44.536,62.604 45.184,61.596 Q45.832,60.588 46.768,59.868 Q47.704,59.148 48.64,58.716 Q49.576,58.284 50.152,58.284 z" fill="url(#Pattern_5)"/>
    <path d="M200.268,49.5 Q201.564,49.5 202.788,49.572 Q204.012,49.644 205.092,50.004 Q206.172,50.364 206.82,51.156 Q207.468,51.948 207.468,53.388 Q207.468,54.252 205.452,56.628 Q203.436,59.004 201.06,61.812 Q198.684,64.62 196.668,67.284 Q194.652,69.948 194.652,71.388 Q194.652,72.54 195.3,73.116 Q195.948,73.692 196.812,73.908 Q197.676,74.124 198.612,74.196 Q199.548,74.268 199.98,74.268 L204.732,74.268 Q205.02,73.98 205.596,73.548 Q206.748,72.684 207.468,72.684 Q209.628,72.684 210.564,74.412 Q211.5,76.14 211.5,78.3 L211.5,79.452 L211.5,82.188 Q211.5,83.772 209.772,84.636 Q208.044,85.5 205.956,85.932 Q203.868,86.364 201.924,86.508 Q199.98,86.652 199.548,86.652 Q197.388,86.652 197.1,86.436 Q196.812,86.22 195.948,86.22 L193.068,86.22 Q192.204,86.22 190.62,87.084 Q189.036,87.948 189.036,89.1 Q189.036,90.684 188.892,91.908 Q188.748,93.132 188.604,93.996 Q188.46,95.004 188.316,95.868 Q187.884,96.732 187.452,97.452 Q186.732,98.892 186.732,99.9 L186.732,101.484 Q186.732,103.932 186.012,106.812 Q185.292,109.692 184.716,110.268 Q183.996,110.988 183.564,111.636 Q183.132,112.284 183.132,115.02 L183.132,117.9 Q183.132,118.764 183.42,119.988 Q183.708,121.212 184.428,122.22 Q185.148,123.228 186.156,123.948 Q187.164,124.668 188.748,124.668 Q190.62,124.668 191.916,123.66 Q192.492,123.228 193.068,122.652 Q194.22,122.652 194.868,123.3 Q195.516,123.948 196.092,124.668 Q196.668,125.532 197.1,126.684 Q197.1,127.836 196.164,129.708 Q195.228,131.58 193.932,133.38 Q192.636,135.18 191.196,136.548 Q189.756,137.916 188.748,137.916 Q187.74,137.916 186.804,139.572 Q185.868,141.228 185.868,141.948 Q185.436,141.948 184.284,142.236 Q183.132,142.524 181.98,142.812 Q180.54,143.244 179.1,143.532 Q177.228,143.532 176.148,143.316 Q175.068,143.1 175.068,141.948 Q174.636,141.66 173.772,139.86 Q172.908,138.06 172.044,135.9 Q171.18,133.74 170.532,131.652 Q169.884,129.564 169.884,128.7 L169.884,121.932 Q169.884,121.356 170.244,119.268 Q170.604,117.18 171.108,114.66 Q171.612,112.14 171.972,109.62 Q172.332,107.1 172.332,105.516 L172.332,103.068 Q173.484,99.756 174.492,97.164 Q175.212,94.86 175.932,92.916 Q176.652,90.972 176.652,90.684 L176.652,86.22 Q176.652,84.348 175.5,83.916 Q174.636,83.196 173.628,82.476 Q172.62,81.756 172.62,80.604 Q172.62,79.74 173.268,78.804 Q173.916,77.868 174.852,76.86 Q175.788,75.852 176.724,74.772 Q177.66,73.692 178.236,72.684 Q179.244,70.524 180.18,70.02 Q181.116,69.516 182.268,68.652 Q184.14,66.492 186.3,65.052 Q188.46,63.612 190.332,60.588 Q191.484,58.572 192.06,56.556 Q192.636,54.54 194.652,53.388 Q196.524,52.812 197.964,51.156 Q199.404,49.5 200.268,49.5 z M224.748,87.516 Q224.892,88.956 225.036,89.748 Q225.18,90.54 225.324,91.26 Q225.468,91.98 225.612,92.988 Q225.756,93.996 225.9,95.868 Q225.9,98.604 226.116,100.332 Q226.332,102.06 227.484,103.932 Q227.772,105.084 227.628,106.308 Q227.484,107.532 227.34,108.54 Q227.196,109.548 227.412,110.124 Q227.628,110.7 228.636,110.7 Q230.796,110.7 231.516,109.764 Q232.236,108.828 233.1,107.82 Q234.684,105.804 236.772,103.068 Q238.86,100.332 239.58,98.316 Q240.012,96.156 240.012,94.932 Q240.012,93.708 239.868,92.772 Q239.724,91.836 239.652,90.9 Q239.58,89.964 239.868,88.668 L239.868,88.236 Q239.868,87.228 239.796,86.796 Q239.724,86.364 239.508,86.22 Q239.292,86.076 238.86,86.004 Q238.428,85.932 237.564,85.5 L235.548,85.5 Q234.396,85.5 233.676,84.492 Q233.244,84.06 233.1,83.484 Q232.812,82.476 233.532,81.468 Q234.252,80.46 235.404,79.812 Q236.556,79.164 237.924,78.732 Q239.292,78.3 240.3,78.3 Q241.308,77.004 242.1,76.572 Q242.892,76.14 243.54,75.924 Q244.188,75.708 244.836,75.564 Q245.484,75.42 246.348,74.988 Q247.212,73.836 249.228,72.828 Q251.244,71.82 253.116,71.82 Q255.852,72.54 255.78,74.484 Q255.708,76.428 254.7,79.452 L254.7,81.036 Q254.7,81.9 254.844,82.908 Q254.988,83.916 255.996,83.916 Q257.004,83.772 259.236,81.9 Q261.468,80.028 264.06,77.868 Q266.652,75.708 269.1,73.98 Q271.548,72.252 273.132,72.252 Q275.292,72.252 277.38,72.972 Q279.468,73.692 281.34,74.772 Q283.212,75.852 284.652,77.364 Q286.092,78.876 286.812,80.316 Q288.252,82.332 288.612,85.14 Q288.972,87.948 288.396,90.684 L283.5,105.084 Q282.924,107.532 280.836,109.692 Q278.748,111.852 277.164,114.3 Q275.292,117.036 272.988,119.988 Q270.684,122.94 267.948,125.82 Q266.652,127.404 265.788,128.124 Q264.924,128.844 264.132,129.492 Q263.34,130.14 262.332,131.076 Q261.324,132.012 259.884,133.884 Q259.164,135.036 257.652,136.476 Q256.14,137.916 254.412,139.212 Q252.684,140.508 250.812,141.372 Q248.94,142.236 247.5,142.236 Q244.476,142.236 242.46,141.3 Q240.444,140.364 240.732,138.348 Q241.308,136.188 241.38,135.108 Q241.452,134.028 241.452,133.164 L242.316,130.716 Q242.028,127.692 241.452,125.316 Q240.876,122.94 241.452,119.916 Q242.172,116.604 241.668,114.444 Q241.164,112.284 240.3,112.284 Q237.852,112.284 235.548,115.38 Q233.244,118.476 231.084,121.5 Q229.932,123.372 229.932,124.524 Q229.932,125.676 228.636,127.548 Q227.484,129.996 226.26,131.436 Q225.036,132.876 224.748,134.748 Q224.028,135.756 223.38,136.98 Q222.732,138.204 222.012,139.212 Q221.292,140.22 220.284,140.868 Q219.276,141.516 217.836,141.516 Q216.828,141.516 215.604,141.228 Q214.38,140.94 213.444,140.364 Q212.508,139.788 211.932,138.996 Q211.356,138.204 211.5,137.052 Q212.364,133.884 212.868,131.58 Q213.372,129.276 213.084,125.1 Q213.084,122.364 212.58,119.844 Q212.076,117.324 212.652,114.3 L213.084,109.548 Q212.94,107.676 212.868,106.74 Q212.796,105.804 212.724,105.012 Q212.652,104.22 212.58,103.428 Q212.508,102.636 212.364,101.052 Q212.076,100.188 212.004,99.54 Q211.932,98.892 211.788,98.604 Q211.644,98.172 211.5,97.884 L211.5,94.284 L211.5,93.852 Q211.5,91.98 210.132,91.116 Q208.764,90.252 206.748,90.252 Q205.884,90.252 205.38,90.612 Q204.876,90.972 204.3,91.476 Q203.724,91.98 202.86,92.34 Q201.996,92.7 200.268,92.7 Q199.26,92.7 198.54,91.98 Q198.108,91.548 197.82,91.116 Q197.82,89.244 199.26,87.516 Q200.7,85.788 201.852,85.788 Q204.012,83.772 205.308,82.476 Q206.604,81.18 208.62,80.316 Q209.052,79.74 210.564,78.156 Q212.076,76.572 213.876,75.06 Q215.676,73.548 217.476,72.324 Q219.276,71.1 220.284,71.1 Q222.444,71.1 223.38,72.612 Q224.316,74.124 224.604,76.212 Q224.892,78.3 224.82,80.388 Q224.748,82.476 224.748,83.484 z M254.7,94.716 Q254.268,96.732 254.412,98.172 Q254.556,99.612 254.916,101.052 Q255.276,102.492 255.636,104.22 Q255.996,105.948 255.996,108.252 Q255.708,109.404 255.708,111.348 Q255.708,113.292 255.996,115.164 Q256.284,117.036 257.004,118.476 Q257.724,119.916 258.732,119.916 Q260.46,119.916 262.548,118.476 Q264.636,117.036 266.508,115.02 Q268.38,113.004 269.748,110.844 Q271.116,108.684 271.548,107.1 Q272.124,104.076 272.412,101.988 Q272.7,99.9 272.484,98.1 Q272.268,96.3 271.404,94.5 Q270.54,92.7 269.1,90.252 Q268.524,89.1 266.436,88.308 Q264.348,87.516 262.332,87.516 Q261.468,87.516 260.172,88.236 Q258.876,88.956 257.724,90.036 Q256.572,91.116 255.708,92.412 Q254.844,93.708 254.7,94.716 z M316.764,71.1 Q318.78,71.1 321.732,71.244 Q324.684,71.388 326.7,72.252 Q328.86,72.252 329.508,73.98 Q330.156,75.708 331.164,77.868 Q331.74,78.444 332.532,79.452 Q333.324,80.46 333.972,81.54 Q334.62,82.62 335.052,83.772 Q335.484,84.924 335.484,85.788 L334.332,98.604 Q334.332,102.636 332.604,107.532 Q330.876,112.428 327.564,116.316 Q326.412,117.468 325.908,118.836 Q325.404,120.204 324.9,121.644 Q324.396,123.084 323.748,124.596 Q323.1,126.108 321.948,127.548 Q321.084,128.556 320.004,129.996 Q318.924,131.436 317.7,132.948 Q316.476,134.46 315.108,135.684 Q313.74,136.908 312.3,137.484 Q310.14,138.636 308.7,139.5 Q307.26,140.364 306.108,140.94 Q304.956,141.516 303.732,141.732 Q302.508,141.948 301.068,141.948 Q298.908,141.948 297.036,140.94 Q295.164,139.932 293.796,138.276 Q292.428,136.62 291.564,134.532 Q290.7,132.444 290.7,130.284 L290.7,120.636 Q290.7,119.772 290.124,119.052 Q289.548,118.332 289.548,115.02 Q289.404,110.844 291.564,104.94 Q293.724,99.036 296.676,93.348 Q299.628,87.66 302.58,83.268 Q305.532,78.876 307.116,77.868 Q308.7,76.86 309.78,75.636 Q310.86,74.412 311.868,73.404 Q312.876,72.396 313.956,71.748 Q315.036,71.1 316.764,71.1 z M317.484,87.516 Q315.18,87.516 312.804,89.46 Q310.428,91.404 308.412,93.924 Q306.396,96.444 304.812,98.964 Q303.228,101.484 302.652,102.636 L301.212,108.108 Q300.636,110.124 300.276,111.996 Q299.916,113.868 299.916,114.3 L299.916,117.036 Q300.492,117.468 300.924,118.764 Q301.356,120.06 302.004,121.356 Q302.652,122.652 303.516,123.66 Q304.38,124.668 305.964,124.668 Q308.844,123.372 311.292,122.076 Q313.308,120.924 315.252,119.628 Q317.196,118.332 317.916,117.036 Q318.78,115.02 319.86,112.284 Q320.94,109.548 321.948,107.1 Q321.66,105.948 322.596,104.796 Q323.532,103.644 323.532,102.636 L323.532,98.604 Q323.532,97.884 323.172,96.084 Q322.812,94.284 322.02,92.34 Q321.228,90.396 320.076,88.956 Q318.924,87.516 317.484,87.516 z" fill="url(#Gradient_6)"/>
  </g>
  <g id="Layer_4">
    <text transform="matrix(1, 0, 0, 1, 247.5, 239)">
      <tspan x="-33.192" y="-95.5" font-family="Trattatello" font-size="144" fill="#000000">3</tspan>
    </text>
    <path d="M222.66,69.084 Q223.524,67.212 226.26,65.196 Q228.996,63.18 232.596,61.524 Q236.196,59.868 240.3,58.716 Q244.404,57.564 248.004,57.42 Q249.156,57.42 250.38,57.852 Q251.604,58.284 252.756,58.284 Q253.908,58.284 255.06,58.068 Q256.212,57.852 257.076,57.852 Q262.548,58.428 266.364,61.452 Q270.18,64.476 271.908,67.788 Q273.636,71.244 273.492,74.628 Q273.348,78.012 272.124,81.18 Q270.9,84.348 268.884,87.156 Q266.868,89.964 264.708,92.268 Q263.556,93.132 261.396,93.924 Q259.236,94.716 257.076,95.004 Q255.636,95.724 254.484,95.508 Q253.332,95.292 253.908,96.3 Q253.908,96.588 254.412,96.66 Q254.916,96.732 255.204,97.02 Q257.364,97.452 259.524,97.74 Q261.684,98.028 263.772,98.604 Q265.86,99.18 267.804,100.188 Q269.748,101.196 271.62,103.068 Q274.356,105.804 275.94,108.684 Q277.524,111.564 277.524,114.3 Q278.244,118.188 276.948,123.012 Q275.652,127.836 273.204,131.148 Q270.18,134.748 265.716,136.62 Q261.252,138.492 257.508,140.364 Q254.484,141.66 251.172,142.092 Q247.86,142.524 244.62,142.524 Q241.38,142.524 238.572,142.236 Q235.764,141.948 233.892,141.948 Q230.292,141.948 227.772,141.084 Q225.252,140.22 223.092,139.5 Q222.084,139.212 220.788,138.42 Q219.492,137.628 218.412,136.62 Q217.332,135.612 216.612,134.46 Q215.892,133.308 215.892,132.3 Q215.604,131.148 216.9,130.716 Q218.196,130.284 219.06,129.132 Q219.636,127.836 220.356,126.684 Q221.076,125.532 221.94,124.812 Q222.804,124.092 223.74,124.092 Q224.676,124.092 225.54,125.1 Q226.692,126.684 229.86,129.204 Q233.028,131.724 237.132,133.596 Q241.236,135.468 245.556,135.828 Q249.876,136.188 253.476,133.164 Q255.348,131.292 257.22,128.844 Q259.092,126.396 259.092,123.084 Q259.092,120.204 258.228,117.18 Q257.364,114.156 255.78,111.492 Q254.196,108.828 251.892,106.812 Q249.588,104.796 246.708,103.932 Q245.556,103.212 243.468,102.492 Q241.38,101.772 238.356,101.052 Q237.204,100.908 236.268,101.124 Q235.332,101.34 234.54,101.484 Q233.748,101.628 233.028,101.34 Q232.308,101.052 231.588,99.9 Q231.156,99.036 230.724,97.956 Q230.292,96.876 230.148,95.94 Q230.004,95.004 230.22,94.284 Q230.436,93.564 231.156,93.42 Q233.028,92.7 236.052,92.7 Q239.076,92.7 242.316,92.196 Q245.556,91.692 248.724,90.108 Q251.892,88.524 254.34,84.636 Q255.492,83.484 255.708,81.9 Q255.924,80.316 255.924,78.3 Q255.636,77.004 255.06,75.276 Q254.484,73.548 253.476,71.964 Q252.468,70.38 251.1,69.516 Q249.732,68.652 248.004,69.084 Q246.42,69.084 245.556,69.012 Q244.692,68.94 243.108,68.652 Q241.524,68.652 240.3,68.94 Q239.076,69.228 237.492,69.804 Q237.348,69.948 236.484,71.028 Q235.62,72.108 234.468,73.476 Q233.316,74.844 231.876,76.212 Q230.436,77.58 229.14,78.3 Q226.98,79.164 225.036,78.084 Q223.092,77.004 223.092,73.116 Q223.236,72.396 223.092,71.964 Q222.948,71.532 222.732,71.1 Q222.516,70.668 222.444,70.236 Q222.372,69.804 222.66,69.084 z" fill="url(#Gradient_7)"/>
    <text transform="matrix(1, 0, 0, 1, 76, 108)">
      <tspan x="-34.2" y="35" font-family="Trattatello" font-size="144" fill="#000000">P</tspan>
    </text>
    <path d="M50.152,58.284 Q51.16,58.284 51.448,58.5 Q51.736,58.716 52.6,59.868 L77.368,59.868 L89.464,62.172 L93.496,62.172 Q97.528,62.172 100.336,65.052 Q103.144,67.932 104.872,71.748 Q106.6,75.564 107.392,79.452 Q108.184,83.34 108.184,85.5 Q108.184,87.948 107.824,90.972 Q107.464,93.996 106.384,96.948 Q105.304,99.9 103.144,102.348 Q100.984,104.796 97.384,105.804 Q96.808,105.804 95.8,106.164 Q94.792,106.524 93.784,107.028 Q92.776,107.532 91.912,107.892 Q91.048,108.252 90.616,108.252 Q89.608,108.252 87.808,108.036 Q86.008,107.82 84.208,107.172 Q82.408,106.524 81.112,105.588 Q79.816,104.652 79.816,103.068 Q79.816,101.052 80.968,100.332 Q82.12,99.612 83.92,99.252 Q85.72,98.892 87.808,98.388 Q89.896,97.884 91.696,96.372 Q93.496,94.86 94.648,91.62 Q95.8,88.38 95.8,82.62 Q95.8,81.756 95.656,80.676 Q95.512,79.596 94.648,78.588 Q93.496,77.004 91.336,75.708 Q89.176,74.412 86.8,73.548 Q84.424,72.684 82.408,72.252 Q80.392,71.82 79.816,71.82 L77.368,71.82 Q76.792,71.82 76.072,72.252 Q75.352,72.684 74.776,73.26 Q74.2,73.836 73.984,74.556 Q73.768,75.276 74.2,75.852 L74.2,94.716 L74.2,101.484 L74.2,109.836 L75.784,116.316 Q75.352,118.332 74.92,119.916 Q74.632,121.356 74.416,122.724 Q74.2,124.092 74.2,124.668 Q74.2,128.7 76.36,129.78 Q78.52,130.86 81.04,130.932 Q83.56,131.004 85.72,131.292 Q87.88,131.58 87.88,133.884 L87.88,135.468 Q87.88,136.044 87.448,136.98 Q87.016,137.916 86.44,138.852 Q85.864,139.788 85.144,140.436 Q84.424,141.084 83.848,141.084 L81.4,141.084 Q80.248,141.084 77.8,140.292 Q75.352,139.5 74.2,139.5 L64.984,139.5 Q64.408,139.5 62.608,139.716 Q60.808,139.932 58.648,140.292 Q56.488,140.652 54.472,140.868 Q52.456,141.084 51.448,141.084 Q49.864,141.084 48.424,141.012 Q46.984,140.94 45.904,140.364 Q44.824,139.788 44.104,138.708 Q43.384,137.628 43.384,135.468 Q43.384,134.46 43.456,133.092 Q43.528,131.724 44.032,130.5 Q44.536,129.276 45.544,128.412 Q46.552,127.548 48.568,127.548 L50.152,128.7 L55.48,128.7 Q59.368,128.7 59.368,124.668 L59.368,120.348 L60.952,115.02 L59.368,112.284 Q59.656,111.132 60.088,110.124 Q60.376,109.26 60.664,108.396 Q60.952,107.532 60.952,107.1 Q60.952,106.092 60.16,104.364 Q59.368,102.636 59.368,101.484 Q59.368,101.052 59.584,100.764 Q59.8,100.476 60.16,99.9 Q60.52,99.324 60.736,98.46 Q60.952,97.596 60.952,95.868 L60.952,90.684 L60.952,87.804 Q60.952,86.94 60.16,85.86 Q59.368,84.78 59.368,82.62 L59.368,78.588 Q59.368,77.148 60.088,75.276 Q60.52,74.268 60.952,73.116 Q60.952,70.956 59.08,69.372 Q57.208,67.788 54.184,67.788 L52.6,67.788 Q52.168,67.788 50.872,67.5 Q49.576,67.212 48.136,66.708 Q46.696,66.204 45.616,65.484 Q44.536,64.764 44.536,63.9 Q44.536,62.604 45.184,61.596 Q45.832,60.588 46.768,59.868 Q47.704,59.148 48.64,58.716 Q49.576,58.284 50.152,58.284 z" fill="url(#Pattern_8)"/>
  </g>
</svg>
