<?xml version="1.0" encoding="UTF-8"?>
<!DOCTYPE svg PUBLIC "-//W3C//DTD SVG 1.1//EN" "http://www.w3.org/Graphics/SVG/1.1/DTD/svg11.dtd">
<svg version="1.1" xmlns="http://www.w3.org/2000/svg" xmlns:xlink="http://www.w3.org/1999/xlink" x="0" y="0" width="595.276" height="841.89" viewBox="0, 0, 595.276, 841.89">
  <defs>
    <pattern id="Pattern_1" patternUnits="userSpaceOnUse" x="16.5" y="17" width="80" height="80" patternTransform="matrix(1.1, 0, 0, 1.1, 0, 0)">
      <g transform="translate(-0, -0)">
        <path d="M0,0 L80,0 L80,80 L0,80 L0,0 z" fill="#C3B599"/>
        <path d="M0,0 L20,20 L0,40 L0,27.5 L7.5,20 L0,12.5 L0,0 z" fill="#726657"/>
        <path d="M0,40 L20,60 L0,80 L0,67.5 L7.5,60 L0,52.5 L0,40 z" fill="#E0D9CA"/>
        <path d="M20,20 L40,0 L60,20 L40,40 L20,20 z M47.5,20 L40,12.5 L32.5,20 L40,27.5 L47.5,20 z" fill="#E0D9CA"/>
        <path d="M20,60 L40,40 L60,60 L40,80 L20,60 z M47.5,60 L40,52.5 L32.5,60 L40,67.5 L47.5,60 z" fill="#726657"/>
        <path d="M80,0 L60,20 L80,40 L80,27.5 L72.5,20 L80,12.5 L80,0 z" fill="#726657"/>
        <path d="M80,40 L60,60 L80,80 L80,67.5 L72.5,60 L80,52.5 L80,40 z" fill="#E0D9CA"/>
      </g>
    </pattern>
    <linearGradient id="Gradient_2" gradientUnits="userSpaceOnUse" x1="156.148" y1="105" x2="343.148" y2="105">
      <stop offset="0" stop-color="#FFFFFF"/>
      <stop offset="1" stop-color="#000000"/>
    </linearGradient>
    <pattern id="Pattern_3" patternUnits="userSpaceOnUse" x="43.384" y="58.284" width="80" height="80" patternTransform="matrix(0.149, -0.134, 0.134, 0.149, 0, 0)">
      <g transform="translate(-0, 0)">
        <path d="M0,-0 L80,-0 L80,80 L0,80 L0,-0 z" fill="#ECEDDB"/>
        <path d="M0,40 L0,-0 L40,40 L40,40 L80,-0 L80,40 L40,80 L0,40 z" fill="#EF2234"/>
      </g>
    </pattern>
    <radialGradient id="Gradient_4" gradientUnits="userSpaceOnUse" cx="273.293" cy="122.283" r="45.432">
      <stop offset="0" stop-color="#FE914F"/>
      <stop offset="0.355" stop-color="#ED2713"/>
      <stop offset="1" stop-color="#9E0000"/>
    </radialGradient>
    <radialGradient id="Gradient_5" gradientUnits="userSpaceOnUse" cx="259.784" cy="117.693" r="53.325">
      <stop offset="0" stop-color="#FE914F"/>
      <stop offset="0.355" stop-color="#ED2713"/>
      <stop offset="1" stop-color="#9E0000"/>
    </radialGradient>
    <pattern id="Pattern_6" patternUnits="userSpaceOnUse" x="43.384" y="58.284" width="80" height="80" patternTransform="matrix(0.149, -0.134, 0.134, 0.149, 0, 0)">
      <g transform="translate(-0, 0)">
        <path d="M0,-0 L80,-0 L80,80 L0,80 L0,-0 z" fill="#ECEDDB"/>
        <path d="M0,40 L0,-0 L40,40 L40,40 L80,-0 L80,40 L40,80 L0,40 z" fill="#EF2234"/>
      </g>
    </pattern>
    <radialGradient id="Gradient_7" gradientUnits="userSpaceOnUse" cx="256.221" cy="117.851" r="54.243">
      <stop offset="0" stop-color="#FE914F"/>
      <stop offset="0.355" stop-color="#ED2713"/>
      <stop offset="1" stop-color="#9E0000"/>
    </radialGradient>
    <pattern id="Pattern_8" patternUnits="userSpaceOnUse" x="43.384" y="58.284" width="80" height="80" patternTransform="matrix(0.149, -0.134, 0.134, 0.149, 0, 0)">
      <g transform="translate(-0, 0)">
        <path d="M0,-0 L80,-0 L80,80 L0,80 L0,-0 z" fill="#ECEDDB"/>
        <path d="M0,40 L0,-0 L40,40 L40,40 L80,-0 L80,40 L40,80 L0,40 z" fill="#EF2234"/>
      </g>
    </pattern>
  </defs>
  <g id="Layer_1">
    <g>
      <path d="M16.5,17 L135.5,17 L135.5,192 L16.5,192 L16.5,17 z" fill="url(#Pattern_1)"/>
      <path d="M16.5,17 L135.5,17 L135.5,192 L16.5,192 L16.5,17 z" fill-opacity="0" stroke="#418052" stroke-width="29" stroke-opacity="0.356" stroke-linecap="round" stroke-linejoin="bevel"/>
    </g>
    <g>
      <path d="M156.148,17.5 L343.148,17.5 L343.148,192.5 L156.148,192.5 L156.148,17.5 z" fill="url(#Gradient_2)"/>
      <path d="M156.148,17.5 L343.148,17.5 L343.148,192.5 L156.148,192.5 L156.148,17.5 z" fill-opacity="0" stroke="#418052" stroke-width="29" stroke-opacity="0.356" stroke-linecap="round" stroke-linejoin="bevel"/>
    </g>
  </g>
  <g id="Layer_2" display="none">
    <text transform="matrix(1, 0, 0, 1, 76, 108)">
      <tspan x="-34.2" y="35" font-family="Trattatello" font-size="144" fill="#000000">P</tspan>
    </text>
    <path d="M50.152,58.284 Q51.16,58.284 51.448,58.5 Q51.736,58.716 52.6,59.868 L77.368,59.868 L89.464,62.172 L93.496,62.172 Q97.528,62.172 100.336,65.052 Q103.144,67.932 104.872,71.748 Q106.6,75.564 107.392,79.452 Q108.184,83.34 108.184,85.5 Q108.184,87.948 107.824,90.972 Q107.464,93.996 106.384,96.948 Q105.304,99.9 103.144,102.348 Q100.984,104.796 97.384,105.804 Q96.808,105.804 95.8,106.164 Q94.792,106.524 93.784,107.028 Q92.776,107.532 91.912,107.892 Q91.048,108.252 90.616,108.252 Q89.608,108.252 87.808,108.036 Q86.008,107.82 84.208,107.172 Q82.408,106.524 81.112,105.588 Q79.816,104.652 79.816,103.068 Q79.816,101.052 80.968,100.332 Q82.12,99.612 83.92,99.252 Q85.72,98.892 87.808,98.388 Q89.896,97.884 91.696,96.372 Q93.496,94.86 94.648,91.62 Q95.8,88.38 95.8,82.62 Q95.8,81.756 95.656,80.676 Q95.512,79.596 94.648,78.588 Q93.496,77.004 91.336,75.708 Q89.176,74.412 86.8,73.548 Q84.424,72.684 82.408,72.252 Q80.392,71.82 79.816,71.82 L77.368,71.82 Q76.792,71.82 76.072,72.252 Q75.352,72.684 74.776,73.26 Q74.2,73.836 73.984,74.556 Q73.768,75.276 74.2,75.852 L74.2,94.716 L74.2,101.484 L74.2,109.836 L75.784,116.316 Q75.352,118.332 74.92,119.916 Q74.632,121.356 74.416,122.724 Q74.2,124.092 74.2,124.668 Q74.2,128.7 76.36,129.78 Q78.52,130.86 81.04,130.932 Q83.56,131.004 85.72,131.292 Q87.88,131.58 87.88,133.884 L87.88,135.468 Q87.88,136.044 87.448,136.98 Q87.016,137.916 86.44,138.852 Q85.864,139.788 85.144,140.436 Q84.424,141.084 83.848,141.084 L81.4,141.084 Q80.248,141.084 77.8,140.292 Q75.352,139.5 74.2,139.5 L64.984,139.5 Q64.408,139.5 62.608,139.716 Q60.808,139.932 58.648,140.292 Q56.488,140.652 54.472,140.868 Q52.456,141.084 51.448,141.084 Q49.864,141.084 48.424,141.012 Q46.984,140.94 45.904,140.364 Q44.824,139.788 44.104,138.708 Q43.384,137.628 43.384,135.468 Q43.384,134.46 43.456,133.092 Q43.528,131.724 44.032,130.5 Q44.536,129.276 45.544,128.412 Q46.552,127.548 48.568,127.548 L50.152,128.7 L55.48,128.7 Q59.368,128.7 59.368,124.668 L59.368,120.348 L60.952,115.02 L59.368,112.284 Q59.656,111.132 60.088,110.124 Q60.376,109.26 60.664,108.396 Q60.952,107.532 60.952,107.1 Q60.952,106.092 60.16,104.364 Q59.368,102.636 59.368,101.484 Q59.368,101.052 59.584,100.764 Q59.8,100.476 60.16,99.9 Q60.52,99.324 60.736,98.46 Q60.952,97.596 60.952,95.868 L60.952,90.684 L60.952,87.804 Q60.952,86.94 60.16,85.86 Q59.368,84.78 59.368,82.62 L59.368,78.588 Q59.368,77.148 60.088,75.276 Q60.52,74.268 60.952,73.116 Q60.952,70.956 59.08,69.372 Q57.208,67.788 54.184,67.788 L52.6,67.788 Q52.168,67.788 50.872,67.5 Q49.576,67.212 48.136,66.708 Q46.696,66.204 45.616,65.484 Q44.536,64.764 44.536,63.9 Q44.536,62.604 45.184,61.596 Q45.832,60.588 46.768,59.868 Q47.704,59.148 48.64,58.716 Q49.576,58.284 50.152,58.284 z" fill="url(#Pattern_3)"/>
    <text transform="matrix(1, 0, 0, 1, 247.5, 239)">
      <tspan x="-76.104" y="-95.5" font-family="Trattatello" font-size="144" fill="#000000">one</tspan>
    </text>
    <path d="M201.076,72.1 Q203.092,72.1 206.044,72.244 Q208.996,72.388 211.012,73.252 Q213.172,73.252 213.82,74.98 Q214.468,76.708 215.476,78.868 Q216.052,79.444 216.844,80.452 Q217.636,81.46 218.284,82.54 Q218.932,83.62 219.364,84.772 Q219.796,85.924 219.796,86.788 L218.644,99.604 Q218.644,103.636 216.916,108.532 Q215.188,113.428 211.876,117.316 Q210.724,118.468 210.22,119.836 Q209.716,121.204 209.212,122.644 Q208.708,124.084 208.06,125.596 Q207.412,127.108 206.26,128.548 Q205.396,129.556 204.316,130.996 Q203.236,132.436 202.012,133.948 Q200.788,135.46 199.42,136.684 Q198.052,137.908 196.612,138.484 Q194.452,139.636 193.012,140.5 Q191.572,141.364 190.42,141.94 Q189.268,142.516 188.044,142.732 Q186.82,142.948 185.38,142.948 Q183.22,142.948 181.348,141.94 Q179.476,140.932 178.108,139.276 Q176.74,137.62 175.876,135.532 Q175.012,133.444 175.012,131.284 L175.012,121.636 Q175.012,120.772 174.436,120.052 Q173.86,119.332 173.86,116.02 Q173.716,111.844 175.876,105.94 Q178.036,100.036 180.988,94.348 Q183.94,88.66 186.892,84.268 Q189.844,79.876 191.428,78.868 Q193.012,77.86 194.092,76.636 Q195.172,75.412 196.18,74.404 Q197.188,73.396 198.268,72.748 Q199.348,72.1 201.076,72.1 z M201.796,88.516 Q199.492,88.516 197.116,90.46 Q194.74,92.404 192.724,94.924 Q190.708,97.444 189.124,99.964 Q187.54,102.484 186.964,103.636 L185.524,109.108 Q184.948,111.124 184.588,112.996 Q184.228,114.868 184.228,115.3 L184.228,118.036 Q184.804,118.468 185.236,119.764 Q185.668,121.06 186.316,122.356 Q186.964,123.652 187.828,124.66 Q188.692,125.668 190.276,125.668 Q193.156,124.372 195.604,123.076 Q197.62,121.924 199.564,120.628 Q201.508,119.332 202.228,118.036 Q203.092,116.02 204.172,113.284 Q205.252,110.548 206.26,108.1 Q205.972,106.948 206.908,105.796 Q207.844,104.644 207.844,103.636 L207.844,99.604 Q207.844,98.884 207.484,97.084 Q207.124,95.284 206.332,93.34 Q205.54,91.396 204.388,89.956 Q203.236,88.516 201.796,88.516 z M243.844,73.684 Q245.428,73.684 246.292,74.692 Q247.156,75.7 247.876,76.852 Q248.308,77.86 248.164,79.588 Q248.02,81.316 247.66,83.044 Q247.3,84.772 246.94,86.356 Q246.58,87.94 246.58,88.516 L247.012,90.82 L248.596,93.7 Q249.172,93.7 250.828,92.044 Q252.484,90.388 254.716,87.94 Q256.948,85.492 259.396,82.684 Q261.844,79.876 264.148,77.428 Q266.452,74.98 268.324,73.324 Q270.196,71.668 271.06,71.668 Q272.212,71.668 273.004,73.108 Q273.796,74.548 274.516,76.132 Q275.236,78.004 275.812,80.452 Q275.956,82.468 275.524,86.068 Q275.092,89.668 274.156,93.916 Q273.22,98.164 272.14,102.556 Q271.06,106.948 270.124,110.62 Q269.188,114.292 268.54,116.74 Q267.892,119.188 267.892,119.332 Q267.892,119.908 267.748,120.7 Q267.604,121.492 267.604,122.14 Q267.604,122.788 267.964,123.22 Q268.324,123.652 269.476,123.652 Q270.34,123.076 271.204,122.5 Q271.924,121.924 272.788,121.348 Q273.652,120.772 274.66,120.052 Q277.108,118.468 279.196,117.1 Q281.284,115.732 281.86,115.732 Q282.724,115.732 283.732,116.668 Q284.74,117.604 284.74,118.468 Q284.74,118.756 283.804,120.052 Q282.868,121.348 281.572,122.788 Q280.276,124.228 278.98,125.38 Q277.684,126.532 277.108,126.532 Q277.108,127.684 276.316,128.692 Q275.524,129.7 274.66,129.7 Q272.356,132.148 270.772,134.452 Q269.188,136.756 267.604,138.7 Q266.02,140.644 264.148,141.796 Q262.276,142.948 259.396,142.948 Q258.388,142.948 257.308,142.228 Q256.228,141.508 255.364,140.428 Q254.5,139.348 253.996,138.124 Q253.492,136.9 253.492,136.036 L253.06,130.852 Q253.924,126.964 255.292,122.5 Q256.66,118.036 257.812,114.148 Q258.964,110.836 259.684,107.812 Q260.404,104.788 260.692,102.052 L260.692,100.468 Q260.116,96.436 257.812,96.436 Q254.356,96.436 252.34,97.948 Q250.324,99.46 249.028,101.836 Q247.732,104.212 246.796,106.948 Q245.86,109.684 244.708,112.132 Q243.988,112.996 243.772,113.788 Q243.556,114.58 243.844,115.732 Q243.556,117.46 243.196,119.188 Q242.836,120.916 242.26,122.5 Q240.676,127.108 239.236,131.644 Q237.796,136.18 236.644,140.068 Q237.364,141.22 236.428,141.436 Q235.492,141.652 234.628,141.652 Q233.764,141.652 232.18,141.58 Q230.596,141.508 229.084,141.076 Q227.572,140.644 226.348,139.78 Q225.124,138.916 224.98,137.332 Q224.692,134.884 225.556,132.22 Q226.42,129.556 227.5,127.252 Q228.58,124.948 229.588,123.22 Q230.596,121.492 230.596,120.916 L230.596,118.468 L230.596,115.732 L229.876,113.284 Q229.876,112.42 230.452,111.052 Q231.028,109.684 231.676,108.316 Q232.324,106.948 232.9,105.796 Q233.476,104.644 233.476,104.068 L233.476,102.052 L233.044,96.436 Q233.044,95.572 232.828,94.636 Q232.612,93.7 231.46,93.7 Q230.596,93.7 229.516,94.132 Q228.436,94.564 227.356,95.068 Q226.276,95.572 225.34,96.004 Q224.404,96.436 223.828,96.436 L222.676,96.436 Q221.668,95.86 222.172,94.204 Q222.676,92.548 222.676,91.684 Q226.276,86.644 229.66,82.828 Q233.044,79.012 237.796,75.988 Q238.804,75.412 240.532,74.548 Q242.26,73.684 243.844,73.684 z M315.556,72.1 Q318.58,72.1 320.668,73.18 Q322.756,74.26 324.052,76.132 Q325.348,78.004 325.924,80.452 Q326.5,82.9 326.356,85.636 Q326.356,89.524 323.476,91.9 Q320.596,94.276 317.572,96.004 Q314.836,97.876 311.74,99.316 Q308.644,100.756 305.98,102.484 Q303.316,104.212 301.516,106.516 Q299.716,108.82 299.572,112.42 L299.572,118.468 Q299.284,120.916 300.58,123.292 Q301.876,125.668 303.892,125.668 Q304.036,125.812 305.044,125.236 Q306.052,124.66 307.276,123.868 Q308.5,123.076 309.724,122.212 Q310.948,121.348 311.524,120.916 Q313.684,119.908 314.908,119.26 Q316.132,118.612 316.708,118.9 Q317.716,118.9 318.436,119.188 Q319.156,119.476 319.156,121.348 Q318.868,124.516 316.42,127.468 Q313.972,130.42 311.092,132.94 Q308.212,135.46 305.476,137.332 Q302.74,139.204 301.876,140.068 Q299.428,142.228 297.34,142.372 Q295.252,142.516 293.092,142.516 Q291.796,142.372 290.428,141.364 Q289.06,140.356 287.98,138.988 Q286.9,137.62 286.324,136.18 Q285.748,134.74 285.892,133.732 L285.892,131.284 Q285.892,130.276 285.316,129.124 Q285.028,128.548 284.74,128.116 L285.172,125.236 L285.172,122.932 Q285.172,122.356 285.46,119.836 Q285.748,117.316 286.18,114.364 Q286.612,111.412 286.972,108.748 Q287.332,106.084 287.476,105.22 Q288.052,104.788 288.052,104.356 Q288.052,103.924 287.908,103.492 Q287.764,103.06 287.764,102.412 Q287.764,101.764 288.34,100.9 Q288.34,99.172 289.06,97.3 Q289.492,96.292 289.924,95.284 L291.94,90.532 Q292.228,87.364 294.964,83.98 Q297.7,80.596 301.372,77.86 Q305.044,75.124 308.932,73.468 Q312.82,71.812 315.556,72.1 z M309.076,82.9 Q308.356,82.9 307.636,83.98 Q306.916,85.06 306.196,86.356 Q305.476,87.94 304.756,89.668 Q304.612,90.388 304.324,91.324 Q304.036,92.26 303.892,93.052 Q303.748,93.844 304.036,94.348 Q304.324,94.852 305.188,94.852 Q305.908,94.996 307.348,94.564 Q308.788,94.132 310.3,93.268 Q311.812,92.404 313.036,91.18 Q314.26,89.956 314.404,88.516 L314.404,86.068 Q314.404,85.348 313.972,84.772 Q313.54,84.196 312.964,83.908 Q312.388,83.476 311.524,83.188 z" fill="url(#Gradient_4)"/>
  </g>
  <g id="Layer_3">
    <text transform="matrix(1, 0, 0, 1, 250.5, 239.5)">
      <tspan x="-42.048" y="-95.5" font-family="Trattatello" font-size="144" fill="#000000">II</tspan>
    </text>
    <path d="M233.532,58.284 Q233.964,58.284 234.972,58.5 Q235.98,58.716 237.132,58.932 Q238.284,59.148 239.364,59.292 Q240.444,59.436 241.02,59.436 Q241.308,59.436 242.028,60.012 Q242.748,60.588 243.396,61.452 Q244.044,62.316 244.548,63.396 Q245.052,64.476 245.052,65.484 Q245.052,66.06 243.324,66.492 Q241.596,66.924 239.436,67.356 Q237.276,67.788 235.548,68.364 Q233.82,68.94 233.82,69.804 L233.82,79.884 Q234.108,81.036 234.54,82.044 Q234.828,82.908 235.116,83.772 Q235.404,84.636 235.404,85.068 L233.82,91.836 Q233.82,92.268 234.036,93.42 Q234.252,94.572 234.612,95.868 Q234.972,97.164 235.188,98.316 Q235.404,99.468 235.404,99.9 L236.7,107.1 Q236.7,110.124 236.052,112.716 Q235.404,115.308 235.404,116.316 L235.404,120.348 Q235.404,121.212 234.612,121.86 Q233.82,122.508 233.82,125.532 Q233.82,126.108 234.252,126.9 Q234.684,127.692 235.332,128.34 Q235.98,128.988 236.7,129.42 Q237.42,129.852 237.852,129.852 L241.02,130.716 Q245.052,132.588 245.052,136.764 Q245.052,138.492 242.676,139.572 Q240.3,140.652 237.852,140.652 L235.404,140.652 L232.668,140.652 L229.932,140.652 L224.604,139.068 Q223.74,139.068 222.156,139.5 Q220.572,139.932 218.844,140.508 Q217.116,141.084 215.676,141.516 Q214.236,141.948 213.804,141.948 Q212.94,141.948 211.428,141.012 Q209.916,140.076 209.916,139.068 Q209.916,137.484 211.572,136.26 Q213.228,135.036 215.172,133.812 Q217.116,132.588 218.484,131.148 Q219.852,129.708 219.42,127.548 Q218.268,125.388 218.844,124.308 Q219.42,123.228 219.42,122.22 L219.42,118.332 L219.42,108.684 L219.42,87.804 L217.836,83.916 Q218.124,82.332 218.556,80.892 Q218.844,79.74 219.132,78.66 Q219.42,77.58 219.42,77.004 Q219.42,74.124 218.988,72.468 Q218.556,70.812 217.836,69.804 Q217.116,69.084 216.252,68.868 Q215.388,68.652 214.452,68.58 Q213.516,68.508 212.508,68.364 Q211.5,68.22 210.636,67.788 Q209.772,67.212 209.196,65.916 Q208.62,64.62 208.62,61.884 Q208.62,61.308 208.764,60.732 Q208.908,60.3 209.124,59.868 Q209.34,59.436 209.916,59.436 L212.652,59.436 L217.836,59.436 Q218.412,59.436 219.204,59.58 Q219.996,59.724 220.716,60.012 Q221.436,60.3 222.3,60.588 Q223.164,60.588 224.46,60.444 Q225.756,60.3 226.908,60.012 Q228.348,59.724 229.932,59.436 L231.516,59.436 Q232.092,59.436 232.956,58.86 z M275.58,58.284 Q276.012,58.284 277.02,58.5 Q278.028,58.716 279.18,58.932 Q280.332,59.148 281.412,59.292 Q282.492,59.436 283.068,59.436 Q283.356,59.436 284.076,60.012 Q284.796,60.588 285.444,61.452 Q286.092,62.316 286.596,63.396 Q287.1,64.476 287.1,65.484 Q287.1,66.06 285.372,66.492 Q283.644,66.924 281.484,67.356 Q279.324,67.788 277.596,68.364 Q275.868,68.94 275.868,69.804 L275.868,79.884 Q276.156,81.036 276.588,82.044 Q276.876,82.908 277.164,83.772 Q277.452,84.636 277.452,85.068 L275.868,91.836 Q275.868,92.268 276.084,93.42 Q276.3,94.572 276.66,95.868 Q277.02,97.164 277.236,98.316 Q277.452,99.468 277.452,99.9 L278.748,107.1 Q278.748,110.124 278.1,112.716 Q277.452,115.308 277.452,116.316 L277.452,120.348 Q277.452,121.212 276.66,121.86 Q275.868,122.508 275.868,125.532 Q275.868,126.108 276.3,126.9 Q276.732,127.692 277.38,128.34 Q278.028,128.988 278.748,129.42 Q279.468,129.852 279.9,129.852 L283.068,130.716 Q287.1,132.588 287.1,136.764 Q287.1,138.492 284.724,139.572 Q282.348,140.652 279.9,140.652 L277.452,140.652 L274.716,140.652 L271.98,140.652 L266.652,139.068 Q265.788,139.068 264.204,139.5 Q262.62,139.932 260.892,140.508 Q259.164,141.084 257.724,141.516 Q256.284,141.948 255.852,141.948 Q254.988,141.948 253.476,141.012 Q251.964,140.076 251.964,139.068 Q251.964,137.484 253.62,136.26 Q255.276,135.036 257.22,133.812 Q259.164,132.588 260.532,131.148 Q261.9,129.708 261.468,127.548 Q260.316,125.388 260.892,124.308 Q261.468,123.228 261.468,122.22 L261.468,118.332 L261.468,108.684 L261.468,87.804 L259.884,83.916 Q260.172,82.332 260.604,80.892 Q260.892,79.74 261.18,78.66 Q261.468,77.58 261.468,77.004 Q261.468,74.124 261.036,72.468 Q260.604,70.812 259.884,69.804 Q259.164,69.084 258.3,68.868 Q257.436,68.652 256.5,68.58 Q255.564,68.508 254.556,68.364 Q253.548,68.22 252.684,67.788 Q251.82,67.212 251.244,65.916 Q250.668,64.62 250.668,61.884 Q250.668,61.308 250.812,60.732 Q250.956,60.3 251.172,59.868 Q251.388,59.436 251.964,59.436 L254.7,59.436 L259.884,59.436 Q260.46,59.436 261.252,59.58 Q262.044,59.724 262.764,60.012 Q263.484,60.3 264.348,60.588 Q265.212,60.588 266.508,60.444 Q267.804,60.3 268.956,60.012 Q270.396,59.724 271.98,59.436 L273.564,59.436 Q274.14,59.436 275.004,58.86 z" fill="url(#Gradient_5)"/>
    <text transform="matrix(1, 0, 0, 1, 76, 108)">
      <tspan x="-34.2" y="35" font-family="Trattatello" font-size="144" fill="#000000">P</tspan>
    </text>
    <path d="M50.152,58.284 Q51.16,58.284 51.448,58.5 Q51.736,58.716 52.6,59.868 L77.368,59.868 L89.464,62.172 L93.496,62.172 Q97.528,62.172 100.336,65.052 Q103.144,67.932 104.872,71.748 Q106.6,75.564 107.392,79.452 Q108.184,83.34 108.184,85.5 Q108.184,87.948 107.824,90.972 Q107.464,93.996 106.384,96.948 Q105.304,99.9 103.144,102.348 Q100.984,104.796 97.384,105.804 Q96.808,105.804 95.8,106.164 Q94.792,106.524 93.784,107.028 Q92.776,107.532 91.912,107.892 Q91.048,108.252 90.616,108.252 Q89.608,108.252 87.808,108.036 Q86.008,107.82 84.208,107.172 Q82.408,106.524 81.112,105.588 Q79.816,104.652 79.816,103.068 Q79.816,101.052 80.968,100.332 Q82.12,99.612 83.92,99.252 Q85.72,98.892 87.808,98.388 Q89.896,97.884 91.696,96.372 Q93.496,94.86 94.648,91.62 Q95.8,88.38 95.8,82.62 Q95.8,81.756 95.656,80.676 Q95.512,79.596 94.648,78.588 Q93.496,77.004 91.336,75.708 Q89.176,74.412 86.8,73.548 Q84.424,72.684 82.408,72.252 Q80.392,71.82 79.816,71.82 L77.368,71.82 Q76.792,71.82 76.072,72.252 Q75.352,72.684 74.776,73.26 Q74.2,73.836 73.984,74.556 Q73.768,75.276 74.2,75.852 L74.2,94.716 L74.2,101.484 L74.2,109.836 L75.784,116.316 Q75.352,118.332 74.92,119.916 Q74.632,121.356 74.416,122.724 Q74.2,124.092 74.2,124.668 Q74.2,128.7 76.36,129.78 Q78.52,130.86 81.04,130.932 Q83.56,131.004 85.72,131.292 Q87.88,131.58 87.88,133.884 L87.88,135.468 Q87.88,136.044 87.448,136.98 Q87.016,137.916 86.44,138.852 Q85.864,139.788 85.144,140.436 Q84.424,141.084 83.848,141.084 L81.4,141.084 Q80.248,141.084 77.8,140.292 Q75.352,139.5 74.2,139.5 L64.984,139.5 Q64.408,139.5 62.608,139.716 Q60.808,139.932 58.648,140.292 Q56.488,140.652 54.472,140.868 Q52.456,141.084 51.448,141.084 Q49.864,141.084 48.424,141.012 Q46.984,140.94 45.904,140.364 Q44.824,139.788 44.104,138.708 Q43.384,137.628 43.384,135.468 Q43.384,134.46 43.456,133.092 Q43.528,131.724 44.032,130.5 Q44.536,129.276 45.544,128.412 Q46.552,127.548 48.568,127.548 L50.152,128.7 L55.48,128.7 Q59.368,128.7 59.368,124.668 L59.368,120.348 L60.952,115.02 L59.368,112.284 Q59.656,111.132 60.088,110.124 Q60.376,109.26 60.664,108.396 Q60.952,107.532 60.952,107.1 Q60.952,106.092 60.16,104.364 Q59.368,102.636 59.368,101.484 Q59.368,101.052 59.584,100.764 Q59.8,100.476 60.16,99.9 Q60.52,99.324 60.736,98.46 Q60.952,97.596 60.952,95.868 L60.952,90.684 L60.952,87.804 Q60.952,86.94 60.16,85.86 Q59.368,84.78 59.368,82.62 L59.368,78.588 Q59.368,77.148 60.088,75.276 Q60.52,74.268 60.952,73.116 Q60.952,70.956 59.08,69.372 Q57.208,67.788 54.184,67.788 L52.6,67.788 Q52.168,67.788 50.872,67.5 Q49.576,67.212 48.136,66.708 Q46.696,66.204 45.616,65.484 Q44.536,64.764 44.536,63.9 Q44.536,62.604 45.184,61.596 Q45.832,60.588 46.768,59.868 Q47.704,59.148 48.64,58.716 Q49.576,58.284 50.152,58.284 z" fill="url(#Pattern_6)"/>
  </g>
  <g id="Layer_4" display="none">
    <text transform="matrix(1, 0, 0, 1, 247.5, 239)">
      <tspan x="-33.192" y="-95.5" font-family="Trattatello" font-size="144" fill="#000000">3</tspan>
    </text>
    <path d="M222.66,69.084 Q223.524,67.212 226.26,65.196 Q228.996,63.18 232.596,61.524 Q236.196,59.868 240.3,58.716 Q244.404,57.564 248.004,57.42 Q249.156,57.42 250.38,57.852 Q251.604,58.284 252.756,58.284 Q253.908,58.284 255.06,58.068 Q256.212,57.852 257.076,57.852 Q262.548,58.428 266.364,61.452 Q270.18,64.476 271.908,67.788 Q273.636,71.244 273.492,74.628 Q273.348,78.012 272.124,81.18 Q270.9,84.348 268.884,87.156 Q266.868,89.964 264.708,92.268 Q263.556,93.132 261.396,93.924 Q259.236,94.716 257.076,95.004 Q255.636,95.724 254.484,95.508 Q253.332,95.292 253.908,96.3 Q253.908,96.588 254.412,96.66 Q254.916,96.732 255.204,97.02 Q257.364,97.452 259.524,97.74 Q261.684,98.028 263.772,98.604 Q265.86,99.18 267.804,100.188 Q269.748,101.196 271.62,103.068 Q274.356,105.804 275.94,108.684 Q277.524,111.564 277.524,114.3 Q278.244,118.188 276.948,123.012 Q275.652,127.836 273.204,131.148 Q270.18,134.748 265.716,136.62 Q261.252,138.492 257.508,140.364 Q254.484,141.66 251.172,142.092 Q247.86,142.524 244.62,142.524 Q241.38,142.524 238.572,142.236 Q235.764,141.948 233.892,141.948 Q230.292,141.948 227.772,141.084 Q225.252,140.22 223.092,139.5 Q222.084,139.212 220.788,138.42 Q219.492,137.628 218.412,136.62 Q217.332,135.612 216.612,134.46 Q215.892,133.308 215.892,132.3 Q215.604,131.148 216.9,130.716 Q218.196,130.284 219.06,129.132 Q219.636,127.836 220.356,126.684 Q221.076,125.532 221.94,124.812 Q222.804,124.092 223.74,124.092 Q224.676,124.092 225.54,125.1 Q226.692,126.684 229.86,129.204 Q233.028,131.724 237.132,133.596 Q241.236,135.468 245.556,135.828 Q249.876,136.188 253.476,133.164 Q255.348,131.292 257.22,128.844 Q259.092,126.396 259.092,123.084 Q259.092,120.204 258.228,117.18 Q257.364,114.156 255.78,111.492 Q254.196,108.828 251.892,106.812 Q249.588,104.796 246.708,103.932 Q245.556,103.212 243.468,102.492 Q241.38,101.772 238.356,101.052 Q237.204,100.908 236.268,101.124 Q235.332,101.34 234.54,101.484 Q233.748,101.628 233.028,101.34 Q232.308,101.052 231.588,99.9 Q231.156,99.036 230.724,97.956 Q230.292,96.876 230.148,95.94 Q230.004,95.004 230.22,94.284 Q230.436,93.564 231.156,93.42 Q233.028,92.7 236.052,92.7 Q239.076,92.7 242.316,92.196 Q245.556,91.692 248.724,90.108 Q251.892,88.524 254.34,84.636 Q255.492,83.484 255.708,81.9 Q255.924,80.316 255.924,78.3 Q255.636,77.004 255.06,75.276 Q254.484,73.548 253.476,71.964 Q252.468,70.38 251.1,69.516 Q249.732,68.652 248.004,69.084 Q246.42,69.084 245.556,69.012 Q244.692,68.94 243.108,68.652 Q241.524,68.652 240.3,68.94 Q239.076,69.228 237.492,69.804 Q237.348,69.948 236.484,71.028 Q235.62,72.108 234.468,73.476 Q233.316,74.844 231.876,76.212 Q230.436,77.58 229.14,78.3 Q226.98,79.164 225.036,78.084 Q223.092,77.004 223.092,73.116 Q223.236,72.396 223.092,71.964 Q222.948,71.532 222.732,71.1 Q222.516,70.668 222.444,70.236 Q222.372,69.804 222.66,69.084 z" fill="url(#Gradient_7)"/>
    <text transform="matrix(1, 0, 0, 1, 76, 108)">
      <tspan x="-34.2" y="35" font-family="Trattatello" font-size="144" fill="#000000">P</tspan>
    </text>
    <path d="M50.152,58.284 Q51.16,58.284 51.448,58.5 Q51.736,58.716 52.6,59.868 L77.368,59.868 L89.464,62.172 L93.496,62.172 Q97.528,62.172 100.336,65.052 Q103.144,67.932 104.872,71.748 Q106.6,75.564 107.392,79.452 Q108.184,83.34 108.184,85.5 Q108.184,87.948 107.824,90.972 Q107.464,93.996 106.384,96.948 Q105.304,99.9 103.144,102.348 Q100.984,104.796 97.384,105.804 Q96.808,105.804 95.8,106.164 Q94.792,106.524 93.784,107.028 Q92.776,107.532 91.912,107.892 Q91.048,108.252 90.616,108.252 Q89.608,108.252 87.808,108.036 Q86.008,107.82 84.208,107.172 Q82.408,106.524 81.112,105.588 Q79.816,104.652 79.816,103.068 Q79.816,101.052 80.968,100.332 Q82.12,99.612 83.92,99.252 Q85.72,98.892 87.808,98.388 Q89.896,97.884 91.696,96.372 Q93.496,94.86 94.648,91.62 Q95.8,88.38 95.8,82.62 Q95.8,81.756 95.656,80.676 Q95.512,79.596 94.648,78.588 Q93.496,77.004 91.336,75.708 Q89.176,74.412 86.8,73.548 Q84.424,72.684 82.408,72.252 Q80.392,71.82 79.816,71.82 L77.368,71.82 Q76.792,71.82 76.072,72.252 Q75.352,72.684 74.776,73.26 Q74.2,73.836 73.984,74.556 Q73.768,75.276 74.2,75.852 L74.2,94.716 L74.2,101.484 L74.2,109.836 L75.784,116.316 Q75.352,118.332 74.92,119.916 Q74.632,121.356 74.416,122.724 Q74.2,124.092 74.2,124.668 Q74.2,128.7 76.36,129.78 Q78.52,130.86 81.04,130.932 Q83.56,131.004 85.72,131.292 Q87.88,131.58 87.88,133.884 L87.88,135.468 Q87.88,136.044 87.448,136.98 Q87.016,137.916 86.44,138.852 Q85.864,139.788 85.144,140.436 Q84.424,141.084 83.848,141.084 L81.4,141.084 Q80.248,141.084 77.8,140.292 Q75.352,139.5 74.2,139.5 L64.984,139.5 Q64.408,139.5 62.608,139.716 Q60.808,139.932 58.648,140.292 Q56.488,140.652 54.472,140.868 Q52.456,141.084 51.448,141.084 Q49.864,141.084 48.424,141.012 Q46.984,140.94 45.904,140.364 Q44.824,139.788 44.104,138.708 Q43.384,137.628 43.384,135.468 Q43.384,134.46 43.456,133.092 Q43.528,131.724 44.032,130.5 Q44.536,129.276 45.544,128.412 Q46.552,127.548 48.568,127.548 L50.152,128.7 L55.48,128.7 Q59.368,128.7 59.368,124.668 L59.368,120.348 L60.952,115.02 L59.368,112.284 Q59.656,111.132 60.088,110.124 Q60.376,109.26 60.664,108.396 Q60.952,107.532 60.952,107.1 Q60.952,106.092 60.16,104.364 Q59.368,102.636 59.368,101.484 Q59.368,101.052 59.584,100.764 Q59.8,100.476 60.16,99.9 Q60.52,99.324 60.736,98.46 Q60.952,97.596 60.952,95.868 L60.952,90.684 L60.952,87.804 Q60.952,86.94 60.16,85.86 Q59.368,84.78 59.368,82.62 L59.368,78.588 Q59.368,77.148 60.088,75.276 Q60.52,74.268 60.952,73.116 Q60.952,70.956 59.08,69.372 Q57.208,67.788 54.184,67.788 L52.6,67.788 Q52.168,67.788 50.872,67.5 Q49.576,67.212 48.136,66.708 Q46.696,66.204 45.616,65.484 Q44.536,64.764 44.536,63.9 Q44.536,62.604 45.184,61.596 Q45.832,60.588 46.768,59.868 Q47.704,59.148 48.64,58.716 Q49.576,58.284 50.152,58.284 z" fill="url(#Pattern_8)"/>
  </g>
</svg>
